<?xml version="1.0" encoding="utf-8" ?>
<svg baseProfile="full" height="300mm" version="1.1" viewBox="0,0,200,300" width="200mm" xmlns="http://www.w3.org/2000/svg" xmlns:ev="http://www.w3.org/2001/xml-events" xmlns:xlink="http://www.w3.org/1999/xlink"><defs /><rect fill="#222222" height="300" width="200" x="0" y="0" /><text fill="#FFFFFF" style="font-size:12px; font-family:Arial; font-weight:bold;" x="10" y="20">Over 5km Runs</text><text fill="#FFFFFF" style="font-size:4px; font-family:Arial" x="10" y="280">ATHLETE</text><text fill="#FFFFFF" style="font-size:9px; font-family:Arial" x="10" y="290">Xia</text><text fill="#FFFFFF" style="font-size:4px; font-family:Arial" x="120" y="280">STATISTICS</text><text fill="#FFFFFF" style="font-size:3px; font-family:Arial" x="120" y="285">Number: 20</text><text fill="#FFFFFF" style="font-size:3px; font-family:Arial" x="120" y="290">Weekly: 2.9</text><text fill="#FFFFFF" style="font-size:3px; font-family:Arial" x="141" y="285">Total: 133.9 km</text><text fill="#FFFFFF" style="font-size:3px; font-family:Arial" x="141" y="290">Avg: 6.7 km</text><text fill="#FFFFFF" style="font-size:3px; font-family:Arial" x="167" y="285">Min: 4.5 km</text><text fill="#FFFFFF" style="font-size:3px; font-family:Arial" x="167" y="290">Max: 21.3 km</text><polyline fill="none" points="22.84431680769194,52.66278630403394 26.353990326460917,50.33474451342772 22.01178960094694,53.29249736969359 16.118802902055904,59.22693926811917 13.915054413489997,62.92871103077778 12.73972188634798,65.54280312047922 12.25,67.06926275866863 13.915054413489997,63.08135978404607 16.15145102777751,59.28418373888417 22.534159613074735,52.891772400107584 27.088573155924678,49.895848026906606 27.610943168052472,49.32337274587189 27.80683192255674,48.63640001317253 28.93319226114545,47.892176603811095 29.602478839165997,46.460969119521906 31.57769044744782,46.136560512837605 33.17744860937819,46.51821763665066 34.597642079752404,46.02206321845006 34.613966142584104,45.50682449515443 35.887243047123775,44.85800327103061 36.44226118497318,45.239663096901495 37.160519951663446,45.25874606707657 39.707073760568164,44.76258818845963 44.39207980647916,43.02602487806871 45.81227327691158,42.9878584639373 50.39933494554134,41.995528864630614 50.448307134152856,41.403945162834134 52.19498186209239,41.04136064571503 52.61940749693895,40.46885729429778 52.5051390567678,37.93073724133137 52.75,40.02993682894157 52.554111245437525,40.60244157195848 52.064389359089546,41.07952747127274 50.49727932282258,41.3276116407942 50.23609431681689,42.03369548851333 45.60006045940099,42.94969204170047 44.098246674693655,43.00694167203619 42.95556227321504,43.4076885759132 42.67805320431944,43.789351467072265 37.56862152356189,45.1824141745019 36.42593712202506,45.25874606707657 35.83827085851226,44.85800327103061 34.77720677142497,45.27782903514162 34.613966142584104,45.945731648491346 33.07950423209695,46.49913479962561 31.57769044744782,46.09839475614717 30.288089480018243,46.117477635489195 28.5250906891888,45.43049270741176 27.284461910487153,45.37324384547537 28.93319226114545,46.21289200219326 29.3576178959338,46.155643388221506 29.50453446188476,45.85031714067736 30.598246674751863,46.193809132877504 29.537182587606367,46.42280343132734 28.965840386925265,48.27383001735143 28.247581620293204,49.17071236440097 22.566807738738135,52.81544373370707 17.947097944444977,57.20428965623432" stroke="#4dd2ff" stroke-linecap="round" stroke-linejoin="round" stroke-width="0.5"><title>2023-05-10 7.7km</title></polyline><polyline fill="none" points="86.56131957191974,47.80636787507683 85.4143170947209,37.88248904142529 80.13810569792986,32.786428067367524 73.7148918248713,32.51821404788643 67.75047894194722,38.68712931172922 69.81508340127766,65.50832561776042 77.15589925646782,72.75 84.26731461752206,71.14074081252329 88.1671230411157,65.50832561776042 85.87311808485538,38.95534267905168 81.97330966219306,33.59106995444745 74.86189430207014,32.51821404788643 66.60347646474838,42.71032683667727 70.9620858784765,68.19042965094559 80.82630718499422,72.75 88.85532452724874,63.630851107183844 84.72611560765654,36.541421356610954 74.17369281500578,32.786428067367524 66.37407596874982,41.10104859247804 70.50328488834202,66.84937798883766 81.7439091661945,72.48179020662792 88.1671230411157,65.24011505884118 84.72611560765654,37.346062052529305 81.05570768099278,33.054642057744786 73.25609083473682,32.786428067367524 66.37407596874982,40.83283545286395 70.73268538340926,67.92221937561408 81.05570768099278,72.48179020662792 88.39652353525162,64.43548321048729 84.26731461752206,36.00499408412725 72.79728984180838,33.3228560204152 66.60347646474838,41.90568784251809 70.73268538340926,67.38579873903655 73.48549132887274,71.14074081252329 82.20271015819162,72.21358038415201 88.39652353525162,63.89906183700077 84.0379141215235,36.00499408412725 73.48549132887274,32.786428067367524 66.14467547368258,41.637474787654355 70.27388439234346,66.58116757171229 81.2851081751287,72.21358038415201 88.39652353525162,63.89906183700077 84.9555161036551,37.07784851570614 75.55009578820318,32.25 66.83287695981562,40.02819586289115 70.27388439234346,66.04474665108137 80.82630718499422,72.48179020662792 88.85532452724874,63.094429563498124 84.4967151125893,37.346062052529305 73.94429231993854,32.51821404788643 66.83287695981562,40.56462228484452 70.50328488834202,66.84937798883766 80.3675061929971,72.21358038415201 88.39652353525162,63.630851107183844 84.9555161036551,37.88248904142529 74.63249380793422,32.786428067367524 66.60347646474838,39.4917693270836 70.27388439234346,66.58116757171229 79.22050371672958,72.75 84.72611560765654,71.14074081252329 88.1671230411157,64.70369385438971 84.9555161036551,38.15070249373093 74.17369281500578,32.786428067367524 66.60347646474838,40.56462228484452 70.0444838963449,66.58116757171229 80.3675061929971,72.48179020662792 88.39652353525162,64.43548321048729 85.18491659965366,38.41891591716558 75.0912947980687,32.51821404788643 66.60347646474838,40.02819586289115 70.0444838963449,65.50832561776042 76.92649876140058,72.75 83.57911313138902,71.67716065514833 87.93772254418582,66.31295712548308 85.87311808485538,39.4917693270836 76.23829727526754,32.25 66.60347646474838,39.4917693270836 70.27388439234346,65.24011505884118 76.00889677926898,71.67716065514833 83.1203121393919,71.94537053420208 87.93772254418582,66.04474665108137 86.56131957191974,46.197092863498256" stroke="#4dd2ff" stroke-linecap="round" stroke-linejoin="round" stroke-width="0.5"><title>2023-05-09 5.0km</title></polyline><polyline fill="none" points="106.9064781172201,68.29611771914642 105.48888521874323,64.87800828705076 108.76706879632547,59.18113274005009 125.33518579695374,33.59657421556767 126.8413782515563,32.353582697571255 129.23356626741588,32.76791337877512 139.51111478125677,52.137677188031375 138.1821214389056,56.177312298852485 126.4869800270535,63.324318240454886 115.67783417645842,72.23210775159532 122.9429977806285,65.8102211325313 135.52413475420326,57.93817367433803 138.89091788837686,53.173482650192454 129.49936493579298,33.59657421556767 126.043982246425,32.975078653602395 109.29866613354534,58.55965340405237 106.1090821120888,66.4316958701238 111.77945370553061,72.64642157201888 115.14623683970422,72.75 138.8023183317855,54.83076911221724 139.15671655675396,52.65558005584171 132.60034940158948,38.67210654972587 129.76516360463575,33.492991649138276 127.46157514443621,32.25 115.50063506420702,48.82309235219145 105.8432834437117,65.60306279902579 111.95665281778201,72.33568622299936 116.65242929430678,71.92137227085186 139.245316112414,54.72718879021704 132.95474762609228,39.50076239352347 129.41076538013294,33.285826483683195 126.66417913883924,32.45716538437409 106.9950776733458,62.59926204214571 106.9064781172201,67.05317021394148 111.51365503715351,72.12852926913183 115.32343595148996,72.33568622299936 138.8023183317855,54.83076911221724 138.1821214389056,50.27322459768038 130.91695783426985,35.771805577736814 125.95538268983364,32.87149602174759 106.72927900543436,63.53147705545416 106.72927900543436,67.46748622425366 112.04525237437338,72.75" stroke="#4dd2ff" stroke-linecap="round" stroke-linejoin="round" stroke-width="0.5"><title>2023-05-08 5.6km</title></polyline><polyline fill="none" points="174.52217741915956,37.03461808717111 185.95362903224304,45.91303656704258 187.75,49.63621833635261 176.9717741929926,70.35210322606144 173.78729838691652,71.21127712808084 148.47479838691652,57.941722347342875 147.25,54.50497133220779 153.04737903224304,44.09917322057299 165.2137096771039,34.07512586039957 168.23487903224304,33.97965820762329 180.89112903177738,41.998905846325215 187.34173387056217,48.58609169913689 186.8518145158887,52.691125245182775 177.21673387056217,69.77932017081184 174.27721774159,71.21127712808084 147.4949596771039,56.796140128863044 149.69959677383304,49.15888819802785 154.68044354766607,42.38077300490113 164.80544354813173,34.36152875778498 168.80645161261782,33.78872287191916 184.97379032196477,45.05383859400172 187.42338709672913,48.39515945239691 186.93346774159,52.691125245182775 177.05342741915956,69.97024789627176 174.1955645158887,71.21127712808084 147.4949596771039,56.700674878491554 149.0463709672913,50.495411948882975 154.68044354766607,42.4762397694285 164.88709677383304,34.26606113550952 168.88810483831912,33.88419054495171 184.64717741915956,44.767439087852836 187.42338709672913,48.96795607241802 186.60685483878478,53.263919139804784 177.05342741915956,69.87478403846035 174.1139112901874,71.02034966513747 149.1280241929926,58.132652575848624 147.25,54.60043681476964 150.51612903177738,47.72689626982901 157.45665322523564,39.70769950276008 165.45866935467348,33.88419054495171 171.09274193504825,35.22073690517573 173.37903225794435,36.46181389701087 185.3004032257013,45.435704460775014 187.34173387056217,49.54075232875766 186.11693548364565,54.123109301086515 176.64516128972173,70.54303083056584 173.78729838691652,71.02034966513747 160.64112903177738,63.09682434500428 150.35282258037478,58.89637308602687 147.25,54.50497133220779 152.14919354813173,45.435704460775014 164.88709677383304,34.1705935029313 168.56149193504825,33.88419054495171" stroke="#4dd2ff" stroke-linecap="round" stroke-linejoin="round" stroke-width="0.5"><title>2023-05-07 6.6km</title></polyline><polyline fill="none" points="34.55796668911353,113.17959659796907 24.52537907846272,121.39975461049471 18.179981786757708,116.88870110688731 16.036266485229135,113.0793503287714 36.35868754191324,81.40099857619498 39.35988896433264,82.002496122499 41.160609817132354,84.80947962752543 49.3067279625684,102.3529383111163 43.13282789476216,108.16727016249206 24.182384630665183,121.5 15.95051787327975,114.48279713228112 18.865970682818443,107.86652973375749 37.21617366280407,81.10024965985212 39.102643127553165,81.80199698283104 42.18959316192195,87.01496083883103 49.22097935061902,102.3529383111163 46.39127515256405,105.76134406414349 37.47341949865222,110.87392972735688 24.782624914776534,121.09901837736834 16.379260933957994,114.78353546292055 15.864769261330366,113.3800891044666 18.522976234555244,108.66850399773102 36.18719031801447,81.70174739696085 39.35988896433264,82.002496122499 49.04948212672025,100.6487308414653 48.792236290406436,102.95442256948445 24.86837352719158,120.99877294531325 16.379260933957994,114.98402763012564 16.036266485229135,113.27984285645653 19.38046235544607,107.46554234775249 37.30192227475345,81.10024965985212 39.102643127553165,81.6014978007297 42.704084834549576,87.4159568718751 49.135230738669634,100.7489784246427 48.53499045409262,103.15491723752348 24.611127690877765,121.19926379888784 22.553161001764238,120.79828204959631 15.693272036965936,113.78107398998691 37.21617366280407,81.10024965985212 39.01689451606944,81.20049930928508 41.932347326073796,86.31321737350663 48.792236290406436,100.24774040351622 48.70648767799139,102.85417521977797 25.125619363505393,120.99877294531325 22.81040683761239,120.698036585527 16.036266485229135,113.27984285645653 35.41545280953869,82.50374378624838 38.330905619543046,81.0 43.73306817840785,89.32068571262062 48.620739066042006,99.7465021176613 48.620739066042006,102.95442256948445 38.502402843441814,110.67343669111142" stroke="#4dd2ff" stroke-linecap="round" stroke-linejoin="round" stroke-width="0.5"><title>2023-05-06 7.1km</title></polyline><polyline fill="none" points="86.33191814180464,98.16564186476171 81.28510777465999,84.48678040504456 75.77949646580964,81.80464205774479 69.81508421432227,83.95035296212882 68.43868138641119,105.13915069191717 72.5678898692131,118.28148060408421 78.3029016489163,120.69537053373642 86.56131861358881,117.74506030813791 87.93772144056857,99.23849062388763 81.05570730473846,81.80464205774479 74.86189458053559,81.26821404718794 68.20928091462702,86.09606205206364 69.58568374160677,111.57621874823235 74.63249411061406,119.08611083566211 86.33191814180464,120.69537053373642 86.56131861358881,90.65568784228526 81.51450824644417,82.6092838596087 73.25609128270298,81.26821404718794 68.66808185819536,84.48678040504456 66.83287808671594,90.3874747871887 71.8796884547919,118.01327047054656 85.64371672831476,120.15895074768923 88.62592285498977,109.9669532654807 83.34971201606095,85.02320773410611 76.46769788023084,81.5364280664362 68.66808185819536,83.95035296212882 66.60347761679441,92.26496557565406 71.8796884547919,117.2086398981046 84.267313901335,120.42716065538116 88.62592285498977,111.30800790572539 84.9555153157562,87.97355601703748 77.38529976457357,81.0 69.81508421432227,83.41392540582456 66.60347761679441,90.3874747871887 70.732686098665,115.06295712501742 82.89091107435524,120.96358038415201 86.79071908537298,118.54969071014784 88.39652238227427,109.6987422525417 84.72611484397203,86.6324890407268 79.90870494768023,82.07285601971671 73.48549175262451,82.8774977363646 66.60347761679441,88.50998260825872 70.27388515602797,114.79474665154703 77.61470023542643,120.15895074768923 85.4143162574619,119.89074081229046 88.85532332677394,107.82126436731778 84.72611484397203,85.82784851500764 78.9911030633375,81.5364280664362 71.42088751215488,82.6092838596087 66.14467667415738,90.3874747871887 70.732686098665,115.59937798907049 83.57911248784512,121.23179020592943 88.16712191235274,113.18548321025446 84.49671437311918,85.02320773410611 75.09129505231977,81.80464205774479 69.35628327075392,83.6821391985286 66.14467667415738,90.11926170368679 70.732686098665,115.86758837779053 84.03791342955083,120.96358038415201 88.62592285498977,110.50337520730682 86.33191814180464,87.97355601703748 81.97330918814987,83.1457115856465 72.5678898692131,82.07285601971671 66.37407714501023,91.99675269052386 70.27388515602797,115.06295712501742 82.43211013264954,120.69537053373642 88.62592285498977,111.57621874823235 84.72611484397203,85.02320773410611 75.32069552317262,81.5364280664362 67.29167903028429,87.70534267812036 70.0444846842438,115.06295712501742 81.74390871729702,121.5 88.39652238227427,114.52653614827432 84.72611484397203,85.55963495001197 77.38529976457357,81.26821404718794 70.0444846842438,83.1457115856465 66.37407714501023,90.11926170368679 70.0444846842438,115.59937798907049 80.59690636117011,121.5 88.39652238227427,115.06295712501742 86.33191814180464,90.65568784228526 76.0088969366625,81.80464205774479 66.37407714501023,89.85104859247804 69.81508421432227,113.99011505907401 78.3029016489163,120.96358038415201 88.16712191235274,114.79474665154703 85.87311719916761,87.70534267812036 74.40309363882989,81.26821404718794 66.37407714501023,91.19211386656389 70.0444846842438,113.99011505907401 79.44990400504321,121.23179020592943 88.85532332677394,113.99011505907401 85.18491578660905,84.75499408319592 77.1558992927894,81.0 70.732686098665,82.8774977363646 67.06227855850011,91.99675269052386 70.27388515602797,115.59937798907049 73.71489222440869,119.89074081229046 82.20270965993404,120.69537053373642 88.62592285498977,112.11264034919441 86.56131861358881,87.97355601703748 78.9911030633375,82.07285601971671 71.19148704130203,82.8774977363646 67.52107950113714,92.80139125999995 71.19148704130203,117.47685011755675 82.66151060257107,120.96358038415201 88.62592285498977,115.86758837779053 88.16712191235274,103.26166943181306" stroke="#4dd2ff" stroke-linecap="round" stroke-linejoin="round" stroke-width="0.5"><title>2023-05-03 6.2km</title></polyline><polyline fill="none" points="131.32966631744057,95.29419245989993 124.31121360417455,81.79412394505925 112.76472688000649,83.64707883563824 114.80234218388796,114.35298878327012 121.59439319837838,120.44118481082842 132.46167481970042,117.00003235368058 129.97125611454248,89.73534953431226 123.85841020289809,82.05883187009022 117.97196599189192,81.0 112.99112858064473,85.50003235484473 114.57594048418105,113.0294659496285 121.59439319837838,120.70588864968158 128.6128459116444,120.70588864968158 132.68807652033865,115.94121526135132 129.97125611454248,90.79417771007866 119.78317959513515,81.0 116.16075238771737,81.52941599162295 111.63271837774664,90.79417771007866 115.25514558609575,115.41180654801428 127.48083741031587,120.9705924615264 132.68807652033865,113.0294659496285 128.16004251129925,87.61769183981232 117.51916258968413,82.05883187009022 112.99112858064473,84.44120193994604 112.08552177995443,90.52947070868686 114.80234218388796,116.20591957680881 124.7640170045197,121.2352962445002 132.68807652033865,116.73532812297344 129.74485441483557,91.05888468376361 123.85841020289809,83.1176632924471 117.51916258968413,82.58824763726443 112.31192347966135,90.2647636779584 116.16075238771737,117.7941448786296 125.66962380707264,121.5 131.78246971778572,117.7941448786296 113.89673538319767,102.17655231337994 116.38715408742428,117.00003235368058 127.93364081066102,121.2352962445002 133.1408799206838,112.76476129842922 129.74485441483557,87.08827713690698 117.74556429032236,82.85295547917485 113.21753028128296,88.67652091104537 117.06635918933898,118.85296118748374 127.02803400997072,121.5 131.78246971778572,118.32355308928527 133.36728162225336,110.64712308347225 129.2920510135591,88.14710643212311 126.12242720741779,84.97061720327474 112.53832518029958,87.88239914993756 115.0287438845262,113.29417057195678 119.33037619479,120.17648094403557 125.21682040486485,120.9705924615264 132.23527311906219,115.41180654801428 130.42405951488763,88.14710643212311 121.14158979803324,81.79412394505925 113.21753028128296,87.3529845024459 114.80234218388796,112.23535191244446 121.59439319837838,120.70588864968158 130.19765781518072,119.1176651949063 132.46167481970042,115.41180654801428 130.42405951488763,90.00005662068725 126.80163230840117,85.23532479326241 116.38715408742428,83.91178656485863 112.76472688000649,87.3529845024459 112.76472688000649,102.7059638260398 118.65117109194398,119.1176651949063 125.89602550584823,121.5 131.78246971778572,118.05884899827652 131.55606801901013,95.82360542798415 126.12242720741779,85.23532479326241 113.21753028128296,88.14710643212311 116.83995748776942,116.73532812297344 126.3488289071247,120.9705924615264 132.00887141935527,116.20591957680881 132.91447822004557,101.11772895161994 128.38644421100616,86.55886232154444 120.91518809646368,82.58824763726443 115.7079489864409,84.44120193994604 115.25514558609575,111.70594241539948 120.00958129484206,119.64707312476821 131.55606801901013,117.26473655737936 133.1408799206838,110.11771325045265 128.83924761321396,86.29415487195365 121.36799149774015,82.32353976741433 113.21753028128296,89.73534953431226 116.38715408742428,115.14710214850493 124.53761530388147,121.5 130.42405951488763,118.85296118748374 132.46167481970042,112.76476129842922 126.80163230840117,84.70590958604589 116.38715408742428,83.38237107801251 112.76472688000649,91.58829854801297 116.83995748776942,117.7941448786296 129.06564931292087,119.64707312476821 132.68807652033865,108.79418817651458 130.6504612164572,92.64712593937293 127.02803400997072,85.50003235484473 120.2359829954803,82.85295547917485 113.21753028128296,92.1177122995723 114.12313708290458,111.1765328058973 118.65117109194398,119.1176651949063 123.63200850225985,120.9705924615264 131.10326461680233,115.94121526135132 131.55606801901013,96.61772466939874 124.31121360417455,83.1176632924471 113.21753028128296,87.08827713690698 113.89673538319767,113.0294659496285 118.87757279258221,120.17648094403557 125.21682040486485,120.9705924615264 132.46167481970042,115.67651091818698 130.6504612164572,91.32359162974171 124.53761530388147,83.1176632924471 113.67033368162811,84.97061720327474 111.63271837774664,94.23536618752405 115.93435068707913,117.26473655737936 125.21682040486485,120.44118481082842 133.1408799206838,112.50005661929026 128.83924761321396,87.3529845024459 120.91518809646368,82.05883187009022 114.80234218388796,83.91178656485863 111.8591200793162,90.00005662068725 114.57594048418105,116.47062386362813 122.72640169970691,120.44118481082842 131.78246971778572,117.26473655737936 130.8768629161641,101.64714068849571" stroke="#4dd2ff" stroke-linecap="round" stroke-linejoin="round" stroke-width="0.5"><title>2023-05-02 7.0km</title></polyline><polyline fill="none" points="156.93619053671136,120.40002290444681 150.7775323879905,114.50012392888311 150.9486062261276,112.70014742569765 170.62209753412753,81.60001265257597 173.87250044569373,81.80001678527333 184.2224676120095,102.10021633311408 160.0155196110718,120.90001265186584 157.36387513019145,120.70001678430708 151.4618277377449,115.50010939565254 150.9486062261276,112.80014621018199 153.77132454374805,107.40019672416383 171.4774667210877,81.20000425976468 173.7869635266252,81.90001883608056 183.5381722622551,102.40021601610351 181.14313853764907,105.40020761167398 169.59565450903028,112.60014863044489 159.9299826924689,120.80001472332515 157.19280129298568,120.60001883492805 151.4618277377449,115.30011238669977 150.7775323879905,112.90014498407254 152.23166000656784,110.00017624965403 171.64854055875912,81.20000425976468 173.27374201454222,81.10000213503372 175.6687757386826,84.50006844161544 183.45263534318656,102.30021613225108 181.22867545625195,105.3002080451115 158.30478123622015,121.5 151.4618277377449,115.70010636217194 150.9486062261276,112.500149825064 153.51471378747374,107.800194039708 171.56300363969058,81.0 173.61588968895376,81.40000847709598 176.353071088437,85.70008892653277 183.5381722622551,100.6002164920792 181.39974929392338,105.10020888049621 173.7014266080223,110.60017051018076" stroke="#4dd2ff" stroke-linecap="round" stroke-linejoin="round" stroke-width="0.5"><title>2023-04-27 4.5km</title></polyline><polyline fill="none" points="34.98692666133866,161.4768444483052 26.26086820103228,168.92383043962764 22.159620724618435,169.22986973059596 16.313161556608975,163.5171202973579 15.964119218289852,161.27281662612222 37.43022303003818,129.75 39.8735193987377,130.66815484780818 42.57859752140939,135.46294930489967 48.686838443391025,148.2149463003152 48.9486201973632,151.27540050860262 42.31681576790288,157.49829413736006 23.294008324854076,170.25 15.70233746478334,162.08892765588826 37.25570186087862,129.75 39.61173764523119,130.46412051236257 41.09516758285463,133.01454660098534 49.29766253521666,150.96935552422656 24.69017767859623,170.1479870217736 16.400422141421586,163.8231613028911 15.78959804913029,161.8848999631591 36.2958354302682,130.158068928984 39.262695306912065,130.05605171300704 49.21040195133537,151.17338552477304 24.428395924158394,170.1479870217736 16.487682726234198,164.4352430223953 15.78959804913029,162.08892765588826 35.772271922789514,130.66815484780818 37.6047441996634,129.75 39.69899822957814,130.46412051236257 42.753118691034615,135.87101581826573 49.29766253521666,149.43912914796965 48.774099028203636,151.58144539559726 26.435389370191842,168.82181732088793 22.421402478590608,169.22986973059596 16.400422141421586,164.12920221115928 16.051379803102463,161.6808722272981 37.51748361485079,129.75 42.22955518309027,134.64681576035218 47.290669090114534,144.3383570383303 49.12314136652276,151.27540050860262 42.40407635224983,157.60030845290748 37.51748361485079,159.74260658572894" stroke="#4dd2ff" stroke-linecap="round" stroke-linejoin="round" stroke-width="0.5"><title>2023-04-25 5.8km</title></polyline><polyline fill="none" points="97.69678055189434,139.99984490907082 96.98127463864512,140.0966810328755 96.86300919842324,140.35260438320984 97.20597897504922,142.92561585530348 96.54960578185273,143.22302731260424 96.50821287778672,143.34060821292223 96.65604467803496,143.67260020060348 97.75,145.007467618816 97.69678055189434,145.20112487478036 97.02266754271113,145.67834923349437 96.86300919842324,145.67834923349437 95.19546649145195,143.9146766278427 94.96484888307168,143.92850953943707 94.16655716163223,144.5164055745845 93.20269382389961,144.01842339344876 92.81241787120234,143.70026612340007 94.59231274639023,141.65987287913595 94.89980289092637,141.45237169032043 94.45039421811816,140.66386116041394 94.07785808146582,140.2281012569656 93.74080157687422,140.07593044701935 92.38074901446817,140.0551798545348 91.65932982918457,139.48107751506905 91.22766097242129,139.30815413464734 90.85512483573984,139.31507107865036 90.67181340340176,139.44649287560605 90.47667542708223,139.6885849671453 90.42345597897656,139.96526054432616 90.60676741128555,141.95037343594595 90.50624178710859,142.19245624624455 88.14684625493828,142.6973689347069 87.88074901446817,142.82186735390133 87.6915243101248,143.10544620065048 87.66787122210371,143.41668985912838 88.51346911958535,145.83742324496416 88.65538764782832,146.57745811853238 88.51346911958535,146.78494302691252 87.79204993430176,147.27598801809654 87.07654402102344,147.6217921349962 86.69218134036055,147.96759442145412 86.19546649148106,148.2373189342543 85.82884362683399,148.62461372305552 85.94710906702676,150.29133830976207 85.87614980290527,151.07281693894765 85.46222076212871,152.39370204350416 85.00098554533906,153.37570403086283 84.82358738500625,153.41719674762135 84.40965834428789,152.67723934398964 82.99638633377617,149.56517722309945 82.83081471748301,149.43377578313084 82.58245729302871,149.51676619700447 81.83147174771875,150.40890648847562 81.17509855455137,150.96216566571093 79.53120893563027,151.86120183694584 78.43134034163086,152.28996857740276 78.289421813417,152.4421109380055 77.95236530882539,153.5209284242519 77.82227332456387,155.2566807156545 77.69218134036055,155.38115520388237 77.39060446780059,155.41573140856053 77.27825229961309,155.56786649172864 77.40243101184024,156.47375442650082 77.31373193167383,157.8913401170721 75.78219448096934,158.04346943739074 73.77168199737207,159.07379051385215 73.16261498030508,159.24666158648324 72.41162943499512,159.29506540488364 72.28153745070449,159.2190022456125 72.31701708279434,157.4764401708744 71.99178712221328,156.0035240888028 71.87943495399668,153.89436109665985 71.73751642578281,153.80446083353308 71.51872536138399,153.92893808802182 71.2230617608584,154.29545307149237 71.27628120893496,155.14603652706137 71.14027595269727,155.60935781656735 71.32358738503535,156.44609391206177 71.20532194481348,157.03387732504052 70.60808147178614,157.73229544900096 70.1882391590043,157.87751016129914 69.289421813417,157.8360202764161 69.20072273325059,157.73921044262534 69.03515111695742,157.13068820366607 68.75722733247676,157.03387732504052 68.50295663601719,156.60514171022805 68.50886990802246,154.14331502602 68.10676741131465,153.96351506106294 67.55683311432949,154.0257535664714 66.23817345598945,154.50982880708762 66.07851511170156,154.69654258443916 66.40374507228262,156.21789422120492 66.35052562420606,157.39345986556873 66.4510512483539,156.07267582124769 66.20860709596309,154.82101813964982 66.25,154.5997280998199 67.63370565045625,154.05341510537983 68.40834428384551,154.09490739181638 68.4319973718957,157.06845265531592 68.60348226022325,158.37538672536175 69.50229960578145,160.6365283949781 69.2421156373457,160.69184586535266 69.02923784495215,160.28387842072698 68.88731931670918,160.2009016796801 67.74605781867285,159.92431178212428 66.82950065704063,160.60195495221706 65.78876478318125,160.62269902004482 65.54632063076133,160.28387842072698 65.40440210251836,160.31153731100494 65.2388304861961,160.11101009136473 64.09756898818887,160.00037412065285 62.86760841001524,159.4955951278389 62.767082785838284,159.54399876188836 62.3354139290459,159.4195322018859 60.66787122210371,159.48176551151118 58.941195795021486,159.00464195676614 59.65078843629453,157.15143337327027 59.8163600525877,157.06845265531592 62.5837713535002,157.85676522214635 63.60676741131465,158.02963951382844 64.61202365308418,158.05729935807176 66.27956636005547,157.8152753241011 66.39191852824297,158.396131499896 66.46879106439883,160.0349478816206 66.62253613668145,159.3365543635664 66.43922470434336,158.51368509784515 66.48061760840937,157.78070038894657 66.71714848885313,157.62857045697456 68.31373193170293,157.22749893886066 65.13830486201914,157.88442513954215 64.14487516426016,157.9604898520265 63.1455321944959,157.87751016129914 57.25,156.30087601918058 57.30913272011094,156.07959099046275 57.746714848908596,155.65084911508166" stroke="red" stroke-linecap="round" stroke-linejoin="round" stroke-width="0.5"><title>2023-04-22 21.3km</title></polyline><polyline fill="none" points="125.7044263095595,160.9351516229217 113.75278223445639,170.14875213516643 106.91089903237298,165.08634523971705 106.13144398387522,162.35263439256232 126.65709359105676,129.8512521352386 129.08206485258415,130.15500847628573 131.5936422306113,134.20508381997934 139.04176824819297,151.21521326893708 115.57151068095118,169.44001678016502 112.71350883645937,169.94625637267018 106.73768679937348,165.08634523971705 106.04483786784112,162.45388308173278 109.16265806136653,156.3789427995216 126.65709359105676,129.9525042595924 129.3418832020834,130.56001678138273 134.36503795767203,138.76139811292524 138.4355254326947,149.3927138474537 138.00249485019594,152.22771144920262 114.79205563245341,169.74376056774054 107.17071738187224,165.2888420294039 106.04483786784112,162.85887773090508 108.46980912936851,157.79643231158843 126.05085077509284,130.35751265019644 128.8222465030849,130.05375637317775 130.81418718211353,132.28130016697105 138.69534378219396,151.21521326893708 136.0105541711673,154.45520367874997 113.57957000192255,170.0475042592734 106.65108068287373,164.78259997570422 105.87162563437596,163.16262360528344 107.25732349837199,159.72016472235555 125.44460796006024,131.16752891789656 127.60976087208837,129.9525042595924 128.99545873561874,129.75 131.5936422306113,132.8888112118002 136.61679698666558,142.91268782212865 138.6087376656942,151.11396339186467 114.87866174941882,170.25 107.08411126583815,165.1875936400029 130.03473213361576,131.97754450020147 139.04176824819297,149.59521395422053 137.8292826176621,153.24020855949493 126.8303058235906,160.02391159214312 115.39829844795167,169.74376056774054 112.80011495342478,169.64251264929771 105.78501951834187,162.75762908475008 126.91691194055602,129.8512521352386 128.99545873561874,130.35751265019644 139.21498048119247,151.11396339186467 127.69636698905379,160.22640945151215" stroke="#4dd2ff" stroke-linecap="round" stroke-linejoin="round" stroke-width="0.5"><title>2023-04-19 6.5km</title></polyline><polyline fill="none" points="173.03948049386963,129.75 183.4570109755732,151.69175008841557 180.97664657514542,154.78481789387297 171.88197710737586,160.1010037419619 159.06676103873178,170.25 151.791025464423,163.96730131137883 154.51942630438134,157.00795391731663 171.22054660040885,131.29657231923193 173.03948049386963,131.48989367525792 176.09859658777714,135.5496327097062 183.2916533490643,151.78840861585923 161.05105255916715,169.38009044824867 158.15729409176856,169.67006039066473 152.20441953092813,164.0639585411991 151.62566783744842,162.3241268415586 155.09817799832672,155.94471562403487 171.71661948040128,131.29657231923193 173.78358981385827,131.68321499036392 175.51984489429742,134.38970911072101 182.9609380955808,149.95189485064475 181.96879233513027,153.81823532865383 174.85841438779607,159.32774226664333 170.1457220269367,161.06757966656005 160.14158561220393,170.05668683775002 151.791025464423,163.58067229000153 151.5429890244268,162.034154569963 155.34621443785727,155.84805753611727 171.79929829388857,131.29657231923193 174.44502032129094,132.7464814929408 182.7955804686062,149.758577397326 181.80343470862135,153.6249186929199 159.06676103873178,170.25 152.0390619044192,163.77398682112107 152.45245597092435,160.68094941944582 170.889831347391,131.77987563272472 173.3701957478188,131.10325092228595 175.023772014305,133.13312355114613 180.8112889486365,145.5055830918718 180.06717962864786,149.0819659900735" stroke="#4dd2ff" stroke-linecap="round" stroke-linejoin="round" stroke-width="0.5"><title>2023-04-17 5.0km</title></polyline><polyline fill="none" points="34.10221315547824,210.798888261721 25.701419856399298,218.39251264929771 20.93808344984427,216.67129639699124 16.607777625322342,212.4188665151014 22.3237813138403,200.77521189895924 35.401304902508855,180.42378873721464 38.17270063003525,178.6012521352386 48.91185907367617,197.4339631361072 47.266342860646546,202.2939574836637 24.748752574902028,218.69625637267018 19.205961120314896,215.76006301137386 16.261353159788996,211.71012636629166 20.4184467503801,203.3064532026765 35.22809266950935,180.62629258999368 37.826276164036244,178.5 48.219010142143816,196.5227114505833 48.73864684114233,199.35771384701366 47.35294897761196,201.99020855949493 24.748752574902028,218.69625637267018 19.205961120314896,215.45631835714448 16.261353159788996,211.50762908475008 36.70039665000513,179.20876472099917 39.12536791153252,179.91752891789656 45.187796065118164,190.44767806190066 48.30561625864357,196.72521190025145 47.95919179264456,201.18021095683798 25.78802597289905,217.9875208681915 22.583599662873894,218.2912647202611 17.0408082078211,213.53259997570422 16.088140926789492,211.0013856930309 18.339899954851717,206.44518313009758 37.13342723203823,179.10751265019644 40.59767189156264,181.6388112118002 48.82525295764208,197.33271299145417 47.00652451114729,202.39520710351644 24.575540341902524,219.0 16.780989858321846,212.6213636044995 16.607777625322342,210.29264449555194 20.93808344984427,203.20520367874997" stroke="#4dd2ff" stroke-linecap="round" stroke-linejoin="round" stroke-width="0.5"><title>2023-04-13 5.0km</title></polyline><polyline fill="none" points="82.60204187827185,179.00124819361372 85.68899158574641,181.90848249261035 91.86289100116119,193.13633818150265 93.74936026707292,198.0484832477523 93.14912004582584,201.25640098698204 70.94023187132552,217.69680910685565 67.08154473640025,217.4963180415798 61.50788554223254,213.2859958758345 62.879863190464675,207.87269705714425 81.48731003887951,178.8007489478914 85.86048879148439,182.2092303597601 90.49091335386038,189.6276475575869 93.83510887017474,200.25392785912845 71.36897488636896,217.79705462389393 67.76753356074914,218.49877294513863 61.164891130290926,212.58427369775018 81.83030445128679,178.8007489478914 83.80252232030034,179.00124819361372 88.00420386670157,186.01869508769596 93.74936026707292,200.35417521971976 85.17449996760115,207.87269705714425 78.82910334644839,210.98033534165006 71.54047209210694,218.1980365854688 69.31100841425359,218.89975461008726 61.164891130290926,212.58427369775018 64.16609223512933,204.86529547418468 81.91605305438861,178.5 84.1455167317763,179.1014978006715 85.68899158574641,181.60773453011643 93.9208574728109,199.95318571384996 92.29163401620463,202.55961446923902 79.34359496459365,210.7798428563401 69.91124863550067,219.0 68.02477936958894,219.0 61.50788554223254,212.78476580185816 61.07914252765477,210.47910404892173 64.25184083823115,204.76504859066335 81.91605305438861,178.70049930905225 83.8882709229365,178.60024965979392 91.77714239805937,193.53733056923375 91.00540497107431,196.7452635667869" stroke="#4dd2ff" stroke-linecap="round" stroke-linejoin="round" stroke-width="0.5"><title>2023-04-10 5.0km</title></polyline><polyline fill="none" points="142.75,190.37365487864008 141.60106382961385,184.40354533211212 139.43085106369108,184.3289183237939 134.03723404253833,185.97070886314032 131.45212765946053,188.47069342495524 128.89893617015332,189.2915800162591 128.6755319146905,190.00052599053015 126.53723404242191,191.15722425977583 123.15425531903747,191.79154105621274 119.5797872338444,193.43329688278027 118.1117021277314,193.54523450200213 117.28191489353776,194.51535904800403 115.81382978719193,194.4780466146767 113.51595744665246,195.7093548287521 111.76063829776831,195.9705408673908 110.61170212761499,197.649589358276 113.32446808496024,203.2463599786861 114.8882978722686,205.2238643813762 114.28191489353776,206.8282466060482 111.53723404253833,208.95497459432227 109.46276595734525,209.81312436511507 106.36702127661556,212.72335588026908 105.21808510622941,212.79797688568942 102.4734042553464,210.63396132420166 102.53723404253833,209.47732687718235 103.8457446807297,207.38791310842498 110.2925531915389,198.32120651824516 111.92021276592277,199.88830825532204 114.63297872338444,205.6342884353653 113.89893617015332,206.9774910933047 108.92021276603919,210.22354308320791 107.1648936169222,212.3875611606345 105.60106382973026,213.13377121489611 102.25,210.37278613517992 108.09042553196196,200.8211036050634 110.7074468084611,198.17195837089093 105.82446808496024,212.98452933019144 105.1223404253833,213.17108167617698 102.69680851057637,210.93244701789808 102.53723404253833,209.06690729147522 108.95212765946053,198.9181984765455 110.22872340411413,198.24658245246974 111.1223404253833,198.4331425873097 111.63297872338444,199.1793821407773 114.76063829776831,205.55966591549804 114.6648936169222,206.26857921632472 112.07978723396081,208.8803527765849 108.72872340423055,210.55933986132732 106.01595744676888,213.17108167617698 102.25,210.52202912402572 102.40957446792163,209.02959639640176 109.71808510634582,198.17195837089093" stroke="#4dd2ff" stroke-linecap="round" stroke-linejoin="round" stroke-width="0.5"><title>2023-04-08 5.9km</title></polyline><polyline fill="none" points="187.75,190.9756747248175 186.35998439928517,186.3957728187088 186.6758970359806,184.51208606141154 185.38065522618126,184.58595632159268 180.7367394696921,185.65707334008766 178.58853354142047,186.69125217274996 172.83892355696298,190.93874027219135 168.890015600482,192.26837810807046 166.7102184087271,192.30531242021243 161.8767550701741,195.00150665739784 156.37987519486342,195.92485606536502 155.71645865833852,197.95621617368306 159.44422776903957,205.85994131531334 158.78081123239826,207.2633878356719 154.3580343213398,209.84866930148564 151.07254290161654,212.95098181275534 150.06162246491294,212.87711754909833 147.6290951637784,210.40265569856274 148.48205928236712,208.07590692894883 153.1891575664049,200.837033894466 155.3689547580434,198.5471550784714 156.19032761303242,199.0642258003063 159.72854914190248,205.60141107829986 158.02262090484146,208.03897428381606 153.8525741029298,210.2549260786036 151.42004680179525,212.87711754909833 149.84048361936584,212.80325326998718 147.53432137297932,210.95664121728623 147.4079563182313,209.95946665122756 148.1977379093878,208.44523316490813 154.7687207487179,198.6210223713133 155.87441497656982,198.5102214262588 156.47464898589533,199.3966280032182 159.38104524184018,205.1951488906925 159.15990639617667,206.70939646151965 157.20124804985244,208.6298961364664 153.789391575614,210.36572329932824 152.20982839318458,212.28620287889498 150.81981279246975,212.98791393858846 150.03003120131325,212.98791393858846 147.25,210.32879089633934 154.5791731668869,198.5471550784714 156.12714508571662,198.84262415606645 159.47581903275568,206.1554042090138 158.05421216855757,207.9651089819381 154.3264430576237,210.07026396572473 151.23049921984784,212.95098181275534 150.09321372851264,212.95098181275534 147.3131825273158,209.9225342052523 154.7371294851182,198.76875691013993" stroke="#4dd2ff" stroke-linecap="round" stroke-linejoin="round" stroke-width="0.5"><title>2023-04-05 6.0km</title></polyline><polyline fill="none" points="52.75,239.1511527739931 51.84928514692001,232.45663548019365 44.354050834081136,235.20215500195627 37.856036536977626,239.67768249823712 31.26151707698591,241.33248512994032 29.106235107174143,242.98728006432066 24.924344718107022,244.83011081907898 21.417990468558855,245.13098024003557 20.549444003147073,246.1840212092793 24.53832406667061,255.43560431795777 22.86556791095063,257.1655484457442 20.131254964275286,258.5946263812075 15.852859412087128,262.16729610870243 14.726965845911764,262.2801166737918 12.539515488431789,260.2869480922236 12.282168387551792,259.45959181696526 19.777402700507082,247.76357681924128 20.96763304201886,247.72596843386418 24.66699761711061,255.43560431795777 15.981532962527126,262.1296892457758 14.726965845911764,262.3177235208859 12.764694201759994,260.55019741281285 12.25,259.45959181696526 19.68089753773529,247.80118520063115 20.388602065038867,247.50031803792808 21.128474980127066,248.02683540576254 24.60266084189061,255.43560431795777 15.305996822775342,262.54336451977724 12.732525814091787,260.4749833411188 12.346505162771791,259.3467703576316 20.03474980138708,247.19945062074112 21.675337569438852,245.8079355066293 24.699166004662402,245.13098024003557 26.1145750596188,244.19076245493488 27.62648927711416,244.22837121409248 30.29646544868592,242.64879990846384" stroke="#4dd2ff" stroke-linecap="round" stroke-linejoin="round" stroke-width="0.5"><title>2023-04-03 5.1km</title></polyline><polyline fill="none" points="71.66415641549975,267.2493675595615 70.41624017729191,259.8827046172519 70.19601966475602,257.49381710618036 72.30034900759347,255.59125974909693 73.095589747536,254.0606114740658 73.20570000383304,252.93049555797188 74.33127151284134,250.09801164612873 75.17545014456846,248.68174744628777 75.27332592796301,248.02368024659518 82.49166495283134,244.24688483144564 84.59599429566879,243.3455885194271 84.85291822702857,242.8591721411358 84.16778774332488,240.32691743933538 83.82522250147304,237.26525803534605 83.8986293390044,235.40533763480198 84.31460141838761,235.0476577016816 84.08214643289102,234.43244600349863 84.1188498515985,231.4994215163024 83.84969144733623,230.85557835655345 83.99650512239896,230.6695786506898 82.73635441128863,227.25 83.56829857005505,229.65372958824446 83.64170540758641,230.89850132921129 84.05767748702783,231.2848074703652 84.27789799968014,235.09057934361044 83.83745697437553,235.43395198858343 83.81298802851234,235.9633164411789 83.50712620548438,236.00623779246234 83.86192592023872,236.17792306136107 83.78851908264915,237.29387199554185 84.27789799968014,240.98502209159778 84.93855953752063,242.75902737550496 84.1188498515985,243.64602129085688 83.04221623431658,243.83200314818532 81.9166447254247,244.43286586251634 81.74536210449878,244.761908598608 79.60432934289565,245.534440571937 78.76015071116854,246.19251988343603 75.42013960302575,247.9235393050476 72.679617668211,254.97614149592118 70.55081937951036,256.8071829504479 70.17155071883462,257.40798802729114 70.06144046253758,257.7942184533458 71.38276353827678,264.9893466293288 71.61521852377336,267.2207599356043 71.68862536142115,267.606962348902 72.27588006173028,267.75" stroke="#4dd2ff" stroke-linecap="round" stroke-linejoin="round" stroke-width="0.5"><title>2023-03-31 7.3km</title></polyline><polyline fill="none" points="112.94523639371619,252.30203599721426 118.73167267115787,245.45463720249245 128.2685769062955,236.31066967081279 138.0197935961187,229.92229283950292 139.41282455180772,228.33562114552478 139.05563712725416,227.25 135.16229419992305,229.37948481898638 136.66248138295487,230.54860885973903 128.0899831939023,236.06014703479013 113.90964243980125,250.50669291001395 108.33751861704513,260.61061059404165 105.58717544819228,267.75 108.90901849628426,259.6920832961332 114.12395489448681,250.50669291001395 122.51785937137902,241.5716083428706 128.55432684579864,236.06014703479013 137.66260617156513,230.25632817376754 128.16142067871988,236.0183932466316 119.55320374760777,244.24380433990154 113.80248621245846,250.54844516742742 108.55183107196353,260.02609346958343" stroke="#4dd2ff" stroke-linecap="round" stroke-linejoin="round" stroke-width="0.5"><title>2023-03-28 5.0km</title></polyline><polyline fill="none" points="157.096152694372,227.25 160.82035419292515,234.81944645673502 163.2803772011539,242.02911218840745 164.51038870523917,243.84646374515432 165.77456719562178,244.38567458141188 166.3383224683348,245.04470795867383 167.602500958601,247.90049270441523 168.4737591074081,248.99885996275407 168.52500958676683,249.69781762192724 170.02835698064882,252.97289907888626 170.52377828094177,253.53205365613394 170.89961512939772,254.90996323211584 172.83004985115258,257.42612001748057 173.47922258940525,257.6058442204958 174.45298169681337,258.5044626724266 175.22173888690304,258.7440935381019 176.58841833582846,259.7625213281717 177.45967648463557,259.2632927049417 177.83551333314972,259.4230460078106 176.14424751495244,262.0389871365478 173.83797594479984,267.21085581088846 173.06921875471016,267.7300317241461 173.9233934103395,267.3306657635985 174.8971525177476,264.77470363792963 177.3742590190377,259.8823360015522 177.40842600533506,259.2632927049417 177.69884538819315,259.3232002093282 177.64759490889264,259.5428608963266 175.32423984550405,263.75630285080115 173.94047690340085,267.6301903130661 174.76048457284924,264.9943579904211 177.3742590190377,259.2632927049417 177.80134634691058,259.5428608963266 177.9038473055698,259.1634468220436 175.11923792824382,264.2555196085159 173.88922642415855,267.75 173.59880704124225,267.7300317241461 177.3742590190377,259.92227420913696 177.40842600533506,259.24332353261707 177.6134279225953,259.66267570898344 175.46090779046062,263.5566157785797 173.8038089585025,267.47044394574186 177.47675997775514,259.30323104327545" stroke="#4dd2ff" stroke-linecap="round" stroke-linejoin="round" stroke-width="0.5"><title>2023-03-27 6.4km</title></polyline></svg>