<?xml version="1.0" encoding="utf-8" ?>
<svg baseProfile="full" height="300mm" version="1.1" viewBox="0,0,200,300" width="200mm" xmlns="http://www.w3.org/2000/svg" xmlns:ev="http://www.w3.org/2001/xml-events" xmlns:xlink="http://www.w3.org/1999/xlink"><defs /><rect fill="#222222" height="300" width="200" x="0" y="0" /><text fill="#FFFFFF" style="font-size:12px; font-family:Arial; font-weight:bold;" x="10" y="20">Over 6.0km Runs</text><text fill="#FFFFFF" style="font-size:4px; font-family:Arial" x="10" y="280">ATHLETE</text><text fill="#FFFFFF" style="font-size:9px; font-family:Arial" x="10" y="290">Xia</text><text fill="#FFFFFF" style="font-size:4px; font-family:Arial" x="120" y="280">STATISTICS</text><text fill="#FFFFFF" style="font-size:3px; font-family:Arial" x="120" y="285">Number: 11</text><text fill="#FFFFFF" style="font-size:3px; font-family:Arial" x="120" y="290">Weekly: 2.2</text><text fill="#FFFFFF" style="font-size:3px; font-family:Arial" x="141" y="285">Total: 94.7 km</text><text fill="#FFFFFF" style="font-size:3px; font-family:Arial" x="141" y="290">Avg: 8.6 km</text><text fill="#FFFFFF" style="font-size:3px; font-family:Arial" x="167" y="285">Min: 6.2 km</text><text fill="#FFFFFF" style="font-size:3px; font-family:Arial" x="167" y="290">Max: 21.3 km</text><polyline fill="none" points="32.99185166065581,58.63536413671682 28.462776203406975,65.43409951758804 22.503466391237453,77.47098989028018 20.167416944867,84.1023075345438 17.020901364041492,85.49543089856161 16.68718001479283,87.0 17.783693020232022,84.82673214300303 19.92904455238022,84.15803253970807 27.65231006895192,66.6600916547468 31.65696626272984,60.362919955456164 41.71628122567199,49.551671102584805 51.10815348965116,40.91365839034552 63.07444759248756,33.278651960077696 50.48838526918553,41.638142310548574 35.13720319303684,56.57343526982004 28.701148595893756,64.87682942242827 22.598815348232165,77.58244129572995 28.462776203406975,65.04401051288005 31.418593870243058,60.530102476186585 42.5744218386244,48.66001182142645 52.156992016592994,40.24490311933914 42.71744527411647,48.492825538502075 30.798825649777427,61.58892387809465 23.26625804719515,75.68776420201175 20.02439350937493,83.82368242018856 16.877877928549424,85.77405513013946 16.78252897155471,86.49847744294675 17.879041976993904,84.82673214300303 19.69067216012627,84.38093250157544 27.604635590454563,66.82727217976935 31.466268348740414,60.585829971474595 40.47674478474073,50.721971621445846 50.10698944097385,41.805330766073894 63.31281998497434,33.0 49.72559361322783,42.19543695647735 33.182549574412405,58.80254720512312" stroke="#ffe500" stroke-linecap="round" stroke-linejoin="round" stroke-width="0.5"><title>2023-05-17 7.8km</title></polyline><polyline fill="none" points="103.1268705073744,75.71278771513607 117.60921811964363,66.34945240360685 121.33951977733523,62.116688072215766 107.18631642870605,33.51307544019073 99.28685409482569,43.64627093623858 96.76341473823413,48.007367002312094 97.31198851158842,50.44444327137899 94.67883440013975,51.727113026194274 106.4183131470345,33.128268880653195 121.44923453172669,61.988422255730256 89.41252617770806,86.74347361386754 87.76680485811085,86.87173681356944 78.44105071388185,76.73890226089861 106.30859839171171,33.0 117.38978860992938,52.7532478539506 121.01037551322952,62.88628268497996 89.85138519573957,86.74347361386754 87.8765196125023,86.74347361386754 79.09933924209327,77.50848760083318 83.81707369117066,67.50384011364076 106.30859839171171,33.128268880653195 121.33951977733523,62.24495387484785 89.85138519573957,86.61521040031221 87.32794583961368,86.10215741139837 78.77019497798756,77.38022341125179 105.65030986396596,33.38480660051573 108.83203774830326,35.95018081960734 121.33951977733523,61.21882707322948 116.40235581854358,67.24730960617308 104.44344756333157,74.68667230149731 89.19309666892514,87.0 78.55076546873897,77.12369499180932 104.6628770721145,36.07844938803464 107.95431971130893,35.18056912336033 121.66866404097527,62.24495387484785 89.96109995059669,86.74347361386754 86.77937206625938,85.84563083562534 78.55076546873897,76.86716651788447 105.54059510910884,35.18056912336033 108.28346397541463,35.30883777339477 119.69379845727235,56.85777848714497 121.55894928611815,61.73189058247954 119.47436894802377,65.19506359554362 109.38061152165756,72.63443887152243 105.76002461882308,73.4040268145036 89.96109995059669,86.48694717348553 87.65709010325372,86.48694717348553 78.77019497798756,77.25195920839906 104.00458854436874,36.71979202784132 107.62517544720322,34.79576309223194 119.58408370241523,56.601245729252696 121.12009026715532,63.01454840658698 90.18052946031094,86.48694717348553 87.21823108522221,86.2304206789704 78.33133595902473,76.73890226089861 104.88230658136308,35.30883777339477 108.72232299344614,35.69364364177454 121.66866404097527,62.116688072215766 89.41252617770806,86.48694717348553 87.21823108522221,86.10215741139837 78.44105071388185,76.86716651788447 103.78515903512016,36.976328988559544 107.51546069281176,34.79576309223194 121.55894928611815,61.73189058247954 118.70636566542089,65.83639084652532 104.11430329922587,75.07146568328608" stroke="red" stroke-linecap="round" stroke-linejoin="round" stroke-width="0.5"><title>2023-05-14 10.8km</title></polyline><polyline fill="none" points="147.12575574358925,60.21704840537859 151.8053204352036,57.112992684560595 146.01571946789045,61.056663159586606 138.15840386936907,68.96925235747767 135.2200725512812,73.90494804103218 133.65296251513064,77.39040416061471 133.0,79.42568367821514 135.2200725512812,74.10847971204203 138.20193470362574,69.04557831850252 146.71221281739417,60.52236320012889 152.78476420789957,56.52779736919911 153.4812575574033,55.764496994481306 153.74244256340899,54.84853335088701 155.24425634823274,53.85623547172872 156.13663845218252,51.947958826014656 158.77025392989162,51.515414017107105 160.90326481242664,52.02429018219118 162.79685610625893,51.36275095792371 162.81862152344547,50.675765993539244 164.5163240628317,49.81067102802626 165.2563482465921,50.31955079585896 166.2140266021015,50.344994756087544 169.60943168075755,49.68345091793162 175.85610640852246,47.36803317074373 177.74969770247117,47.317144618573366 183.86577992734965,45.99403848615475 183.93107617879286,45.20526021710248 186.2599758161232,44.721814194272156 186.82587666250765,43.958476392377634 186.67351874231827,40.57431632177031 187.0,43.37324910523603 186.7388149938779,44.136588762601605 186.08585247874726,44.77270329502062 183.9963724303525,45.10348218771105 183.64812575571705,46.044927318012924 177.46674727916252,47.26625605560548 175.46432889951393,47.3425888960337 173.94074969762005,47.876918101203046 173.57073760568164,48.38580195608665 166.75816203141585,50.243218899326166 165.23458282928914,50.344994756087544 164.45102781127207,49.81067102802626 163.0362756951945,50.37043871350761 162.81862152344547,51.260975531316944 160.7726723094238,51.99884639949596 158.77025392989162,51.46452634151501 157.05078597331885,51.48997018065711 154.7001209189184,50.57399027654901 153.04594921402168,50.49765846061928 155.24425634823274,51.617189336247975 155.8101571945008,51.54085785095231 156.00604594906326,51.133756187555264 157.46432889963035,51.59174551049364 156.04957678343635,51.89707124175038 155.28778718260583,54.365106689801905 154.33010882698,55.56094981919159 146.75574365165085,60.42059164492821 140.5961305925157,66.27238620830758" stroke="#ffe600" stroke-linecap="round" stroke-linejoin="round" stroke-width="0.5"><title>2023-05-10 7.7km</title></polyline><polyline fill="none" points="49.36290322523564,99.37949078297243 64.60483870981261,111.21738208946772 67.0,116.18162444850896 52.629032257478684,143.80280430149287 48.38306451588869,144.9483695041854 14.633064516354352,127.25562979653478 13.0,122.67329510964919 20.72983870934695,108.79889762750827 36.95161290280521,95.43350114731584 40.97983870981261,95.30621094349772 57.85483870888129,105.99854112858884 66.45564516074955,114.7814555990044 65.80241935420781,120.25483366032131 52.955645160749555,143.03909356112126 49.03629032196477,144.9483695041854 13.32661290280521,125.72818683856167 16.266129031777382,115.54518426407594 22.907258064020425,106.50769733998459 36.407258064020425,95.81537167716306 41.74193548317999,95.05163049593102 63.29838709626347,110.0717847921187 66.56451612897217,114.52687926986255 65.91129032243043,120.25483366032131 52.7379032257013,143.2936638618121 48.927419354207814,144.9483695041854 13.32661290280521,125.60089983802754 15.395161289721727,117.32721593196038 22.907258064020425,106.63498635939322 36.51612903177738,95.6880815140903 41.850806451402605,95.17892072664108 62.86290322523564,109.68991878384259 66.56451612897217,115.29060809663497 65.4758064514026,121.01855885318946 52.7379032257013,143.16637871810235 48.81854838691652,144.69379955355544 15.504032257478684,127.51020343462005 13.0,122.80058241973165 17.35483870888129,113.63586169318296 26.608870966825634,102.94359933701344 37.27822580654174,95.17892072664108 44.790322579909116,96.96098254038952 47.83870967756957,98.61575186275877 63.733870967291296,110.58093928114977 66.45564516074955,116.05433643842116 64.82258064486086,122.16414573485963 52.19354838645086,144.05737444083206 48.38306451588869,144.69379955355544 30.85483870888129,134.1290991267888 17.137096773833036,128.52849744807463 13.0,122.67329510964919 19.532258064486086,110.58093928114977 36.51612903177738,95.56079133728053 41.415322579909116,95.17892072664108" stroke="#fff900" stroke-linecap="round" stroke-linejoin="round" stroke-width="0.5"><title>2023-05-07 6.6km</title></polyline><polyline fill="none" points="102.74395558563992,135.90612879721448 89.36717210523784,146.8663394806208 80.90664238249883,140.85160147584975 78.04835531394929,135.77246710506734 105.14491672301665,93.53466476825997 109.14651861926541,94.33666149666533 111.54747975664213,98.0793061699951 122.40897061722353,121.47058441478293 114.1771038598381,129.22302688332275 88.90984617406502,147.0 77.93402383103967,137.64372950966936 81.8212942443788,128.8220396450488 106.28823155071586,93.13366621313617 108.80352417053655,94.06932931044139 112.91945754969493,101.01994778506923 122.29463913431391,121.47058441478293 118.5217002038844,126.01512541878037 106.63122599897906,132.8319063031813 89.71016655350104,146.4653578364523 78.50568124558777,138.04471395048313 77.81969234906137,136.17345213925 81.36396831320599,129.89133866364136 104.91625375766307,93.935663195909 109.14651861926541,94.33666149666533 122.06597616896033,119.19830778858159 121.72298172069713,122.27256342594046 89.82449803641066,146.33169726049528 78.50568124558777,138.3120368401287 78.04835531394929,136.03979047527537 82.5072831409052,128.28738979704212 106.40256303362548,93.13366621313617 108.80352417053655,93.8019970676396 113.60544644622132,101.55460916250013 122.18030765140429,119.33197123289574 121.37998727243394,122.53988965007011 89.48150358814746,146.59901839855593 86.73754800250754,146.0643760660896 77.59102938277647,136.70809865335468 106.28823155071586,93.13366621313617 108.68919268855825,93.26733241241891 112.57646310143173,100.08428983134218 121.72298172069713,118.66365387139376 121.60865023778751,122.1389002930373 90.16749248467386,146.33169726049528 87.08054245030507,145.93071544740815 78.04835531394929,136.03979047527537 103.88727041333914,95.00499171495903 107.77454082621261,93.0 114.97742423834279,104.09424761682749 121.4943187548779,117.99533615680411 121.4943187548779,122.27256342594046 108.00320379203185,132.56458225473762" stroke="#fff100" stroke-linecap="round" stroke-linejoin="round" stroke-width="0.5"><title>2023-05-06 7.1km</title></polyline><polyline fill="none" points="171.77589085511863,115.88752248627134 165.04681036435068,97.6490405399818 157.70599528588355,94.07285607699305 149.75344561599195,96.93380394950509 147.9182418473065,125.18553425581194 153.42385315708816,142.7086408054456 161.07053552940488,145.92716071149334 172.08175814896822,141.99341374402866 173.91696191951632,117.31798749859445 164.7409430705011,94.07285607699305 156.48252610489726,93.35761872935109 147.61237455159426,99.79474940290675 149.44757832027972,133.7682916643098 156.17665881291032,143.78148111398332 171.77589085511863,145.92716071149334 172.08175814896822,105.87425045622513 165.3526776600629,95.14571181265637 154.3414550423622,93.35761872935109 148.22410914301872,97.6490405399818 145.77717078104615,105.51663304958493 152.50625126995146,142.35102729406208 170.85828896984458,145.2119343301747 174.83456380479038,131.62260435405187 167.79961602017283,98.36427697888575 158.6235971711576,93.71523742191494 148.22410914301872,96.93380394950509 145.47130348719656,108.01995410094969 152.50625126995146,141.27818653080612 169.02308520115912,145.56954754027538 174.83456380479038,133.41067720786668 169.94068708643317,102.29807468946092 159.84706635028124,93.0 149.75344561599195,96.2185672079213 145.47130348719656,105.51663304958493 150.97691479697824,138.41727616661228 167.18788143061101,146.28477384569123 172.38762544468045,143.0662542800419 174.52869650907815,131.2649896699004 169.6348197888583,100.50998538755812 163.21160659566522,94.43047469295561 154.6473223362118,95.50333031523041 145.47130348719656,103.01331014442258 150.36518020555377,138.05966220214032 160.15293364599347,145.2119343301747 170.55242167413235,144.85432108328678 175.1404311005026,128.7616858233232 169.6348197888583,99.43713135342114 161.98813741654158,93.71523742191494 151.8945166822523,95.14571181265637 144.85956889763474,105.51663304958493 150.97691479697824,139.13250398542732 168.10548331588507,146.64238694123924 174.22282921522856,135.91397761390544 169.3289524950087,98.36427697888575 156.7883934006095,94.07285607699305 149.14171102643013,96.57618559803814 144.85956889763474,105.1590156047605 150.97691479697824,139.49011783697642 168.7172179054469,146.28477384569123 174.83456380479038,132.3378336096648 171.77589085511863,102.29807468946092 165.96441224962473,95.86094878101721 153.42385315708816,94.43047469295561 145.16543619148433,107.66233692062087 150.36518020555377,138.41727616661228 166.5761468410492,145.92716071149334 174.83456380479038,133.7682916643098 169.6348197888583,98.36427697888575 157.09426069632173,93.71523742191494 146.38890537247062,101.94045690423809 150.05931290984154,138.41727616661228 165.6585449539125,147.0 174.52869650907815,137.7020481978543 169.6348197888583,99.07951326668262 159.84706635028124,93.35761872935109 150.05931290984154,95.86094878101721 145.16543619148433,105.1590156047605 150.05931290984154,139.13250398542732 164.12920847907662,147.0 174.52869650907815,138.41727616661228 171.77589085511863,105.87425045622513 158.01186257973313,94.07285607699305 145.16543619148433,104.80139812314883 149.75344561599195,136.98682007868774 161.07053552940488,146.28477384569123 174.22282921522856,138.05966220214032 171.16415626369417,101.94045690423809 155.87079151719809,93.35761872935109 145.16543619148433,106.58948515541852 150.05931290984154,136.98682007868774 162.59987200424075,146.64238694123924 175.1404311005026,136.98682007868774 170.24655438028276,98.0066587778274 159.541199054569,93.0 150.97691479697824,95.50333031523041 146.08303807675838,107.66233692062087 150.36518020555377,139.13250398542732 154.95318963192403,144.85432108328678 166.27027954533696,145.92716071149334 174.83456380479038,134.48352046567015 172.08175814896822,102.29807468946092 161.98813741654158,94.43047469295561 151.58864938654006,95.50333031523041 146.6947726663202,108.73518834658898 151.58864938654006,141.63580015674233 166.88201413489878,146.28477384569123 174.83456380479038,139.49011783697642 174.22282921522856,122.68222590908408" stroke="#ffff00" stroke-linecap="round" stroke-linejoin="round" stroke-width="0.5"><title>2023-05-03 6.2km</title></polyline><polyline fill="none" points="51.77288842201233,172.05892327986658 42.41495147161186,154.05883192666806 27.019635839387774,156.52943844744004 29.736456245183945,197.4706517108716 38.79252426326275,205.58824641420506 53.28223309107125,201.00004313816316 49.9616748187691,164.64713271264918 41.81121360324323,154.41177582694218 33.96262132190168,153.0 27.321504773572087,159.00004313979298 29.434587312862277,195.70595459942706 38.79252426326275,205.9411848662421 48.150461215525866,205.9411848662421 53.584102027118206,199.5882870152127 49.9616748187691,166.05890361359343 36.37757279351354,153.0 31.54766985028982,153.70588798890822 25.510291170328856,166.05890361359343 30.34019411355257,198.8824087306857 46.64111654646695,206.2941232821904 53.584102027118206,195.70595459942706 47.546723349019885,161.82358911982737 33.35888345167041,154.41177582694218 27.321504773572087,157.5882692532614 26.11402903869748,165.7059609447606 29.736456245183945,199.94122610241175 43.01868933811784,206.647061659256 53.584102027118206,200.64710416388698 49.659805884584785,166.41184624494053 41.81121360324323,155.82355105644092 33.35888345167041,155.11766351619735 26.415897972881794,165.35301823727787 31.54766985028982,202.05885983840562 44.22616507485509,207.0 52.376626290380955,202.05885983840562 28.52898051030934,181.23540308442898 31.84953878261149,201.00004313816316 47.24485441297293,206.647061659256 54.18783989362419,195.35301506449468 49.659805884584785,161.11770284897648 33.660752387717366,155.47060730564408 27.6233737077564,163.23536121472716 32.75514558516443,203.47061491641216 46.037378679960966,207.0 52.376626290380955,202.76473745238036 54.4897088278085,192.52949744462967 49.056068018078804,162.5294752428308 44.829902943223715,158.294156271033 26.717766907066107,162.17653220007196 30.038325179368258,196.05889409594238 35.77383492514491,205.23530792538077 43.62242720648646,206.2941232821904 52.98036415874958,198.8824087306857 50.56541268713772,162.5294752428308 38.18878639675677,154.05883192666806 27.6233737077564,161.4706460032612 29.736456245183945,194.6471358833369 38.79252426326275,205.9411848662421 50.26354375295341,203.82355359313078 53.28223309107125,198.8824087306857 50.56541268713772,165.00007549417205 45.73550974391401,158.6470997245051 31.84953878261149,156.88238208624534 27.019635839387774,161.4706460032612 27.019635839387774,181.94128510146402 34.86822812259197,203.82355359313078 44.52803400717676,207.0 52.376626290380955,202.4117986643687 52.07475735805929,172.7648072373122 44.829902943223715,158.6470997245051 27.6233737077564,162.5294752428308 32.453276650980115,200.64710416388698 45.13177187554538,206.2941232821904 52.67849522456527,199.94122610241175 53.885970959439874,179.82363860215992 47.84859228134155,160.4118164286483 37.886917462572455,155.11766351619735 30.943931981921196,157.5882692532614 30.34019411355257,193.94125655386597 36.679441725835204,204.52943083294667 52.07475735805929,201.3529820763506 54.18783989362419,191.82361766742542 48.45233014971018,160.05887316260487 38.49065533094108,154.76471968973055 27.6233737077564,164.64713271264918 31.84953878261149,198.5294695312623 42.71682040579617,207.0 50.56541268713772,203.47061491641216 53.28223309107125,195.35301506449468 45.73550974391401,157.9412127812393 31.84953878261149,156.17649477068335 27.019635839387774,167.11773139727302 32.453276650980115,202.05885983840562 48.75419908389449,204.52943083294667 53.584102027118206,190.0589175685309 50.867281621322036,168.52950125234202 46.037378679960966,159.00004313979298 36.98131066001952,155.47060730564408 27.6233737077564,167.82361639942974 28.83084944449365,193.23537707445212 34.86822812259197,203.82355359313078 41.50934466905892,206.2941232821904 51.471019487828016,199.5882870152127 52.07475735805929,173.82363289268687 42.41495147161186,155.82355105644092 27.6233737077564,161.11770284897648 28.52898051030934,195.70595459942706 35.170097056776285,205.23530792538077 43.62242720648646,206.2941232821904 53.28223309107125,199.23534789076075 50.867281621322036,166.76478883973323 42.71682040579617,155.82355105644092 28.227111576125026,158.294156271033 25.510291170328856,170.6471549165435 31.24580091610551,201.3529820763506 43.62242720648646,205.58824641420506 54.18783989362419,195.0000754923094 48.45233014971018,161.4706460032612 37.886917462572455,154.41177582694218 29.736456245183945,156.88238208624534 25.81216010451317,165.00007549417205 29.434587312862277,200.29416515142657 40.30186893232167,205.58824641420506 52.376626290380955,201.3529820763506 51.1691505536437,180.52952091791667" stroke="#fff100" stroke-linecap="round" stroke-linejoin="round" stroke-width="0.5"><title>2023-05-02 7.0km</title></polyline><polyline fill="none" points="126.92904073584941,166.6664598787538 125.97503285150742,166.79557471050066 125.81734559789766,167.13680584427493 126.27463863338926,170.56748780706403 125.39947437579394,170.96403641679353 125.34428383703926,171.12081095055328 125.54139290403691,171.56346693413798 127.0,173.34329015842377 126.92904073584941,173.60149983302836 126.03022339026211,174.23779897798522 125.81734559789766,174.23779897798522 123.59395532193594,171.88623550377815 123.2864651773998,171.9046793859161 122.22207621549023,172.68854076610296 120.93692509853281,172.02456452458864 120.41655716160312,171.60035483119282 122.78975032852031,168.87983050550247 123.19973718791152,168.60316225375573 122.60052562414785,167.55181488054222 122.10381077526836,166.97080167594686 121.65440210246015,166.76790726268518 119.84099868591875,166.74023980604397 118.87910643889336,165.97477002008236 118.30354796320898,165.74420551286312 117.80683311432949,165.75342810485745 117.56241787120234,165.92865716746746 117.3022339027666,166.25144662286039 117.23127463861601,166.62034739243245 117.47568988171406,169.26716458125156 117.34165571615449,169.5899416616594 114.19579500655527,170.26315857960435 113.84099868594785,170.429156471866 113.5886990801373,170.80726160086488 113.55716162946192,171.22225314549723 114.68462549278047,174.44989765994978 114.87385019709473,175.43661082470499 114.68462549278047,175.71325736921426 113.72273324569687,176.36798402412387 112.76872536135488,176.82905617998767 112.25624178710859,177.29012589526974 111.59395532193594,177.64975857899844 111.10512483576895,178.16615163072856 111.26281208937871,180.3884510796779 111.16819973717793,181.43042258525384 110.61629434951465,183.19160272466252 110.00131406044238,184.50093870780984 109.76478317999863,184.5562623301521 109.21287779239356,183.56965245864558 107.32851511167246,179.4202362974611 107.10775295662461,179.24503437750536 106.77660972403828,179.35568826266535 105.7752956635959,180.54520865129598 104.90013140605879,181.28288755427639 102.70827858083067,182.48160244926112 101.24178712218418,183.0532914365249 101.05256241786992,183.25614791733096 100.60315374506172,184.69457123233587 100.42969776605605,187.00890762086783 100.2562417871377,187.1748736051668 99.85413929040078,187.22097521140677 99.70433639947441,187.42382198896667 99.86990801576758,188.6316725686629 99.7516425755748,190.52178682275553 97.70959264127305,190.7246259165113 95.02890932981973,192.098387351798 94.2168199737207,192.3288821153037 93.21550591327832,192.39342053984 93.04204993427265,192.29200299413787 93.08935611037305,189.9685868944871 92.65571616293164,188.00469878506556 92.50591327200527,185.1924814622107 92.31668856769102,185.0726144447035 92.02496714852168,185.23858411735273 91.63074901443906,185.72727076198498 91.70170827858965,186.86138203607698 91.52036793692969,187.47914375541586 91.76478317999863,188.59479188274418 91.60709592638887,189.3785031000516 90.81077529568574,190.30972726533219 90.25098554533906,190.50334688173461 89.05256241786992,190.44802703522146 88.93429697764805,190.31894725683378 88.7135348226002,189.50758427154506 88.34296977662598,189.3785031000516 88.00394218132715,188.80685561363498 88.01182654401055,185.52442003469332 87.47568988174316,185.28468674807664 86.74244415241992,185.36767142195458 84.9842312746332,186.01310507611197 84.77135348223965,186.26205677924736 85.20499342968105,188.29052562826837 85.13403416558867,189.85794648741285 85.26806833111914,188.09690109499206 84.94480946124531,186.4280241861925 85.0,186.13297079975746 86.844940867275,185.4045534738325 87.87779237845098,185.45987652241456 87.90932982918457,189.42460354041395 88.13797634694492,191.1671823004799 89.33639947435586,194.18203785996593 88.98948751643184,194.2557944871296 88.7056504599459,193.71183789430506 88.51642575560254,193.60120223957347 86.99474375820137,193.23241570949176 85.77266754271113,194.13593993627728 84.38501971089863,194.1635986933834 84.0617608409957,193.71183789430506 83.87253613668145,193.74871641466598 83.65177398160449,193.48134678847418 82.13009198423242,193.33383216086077 80.49014454666758,192.66079350378277 80.3561103810789,192.7253316825154 79.78055190536543,192.55937626917876 77.55716162943281,192.64235401534097 75.25492772669531,192.00618927568576 76.20105124838301,189.53524449768884 76.42181340343086,189.42460354041395 80.11169513800996,190.47568696285452 81.47568988174316,190.70618601843307 82.81603153742617,190.74306581075507 85.03942181338789,190.42036709879176 85.18922470431426,191.1948419998589 85.29172141916933,193.37993050881778 85.49671484887949,192.44873915141216 85.25229960578145,191.35158013045293 85.30749014453613,190.37426718525967 85.62286465178477,190.17142727596365 87.7516425755748,189.63666525180452 83.51773981601582,190.512566852718 82.19316688567051,190.6139864693614 80.8607095926418,190.50334688173461 73.0,188.4011680255644 73.07884362680488,188.10612132061215 73.66228646520176,187.53446548677312" stroke="red" stroke-linecap="round" stroke-linejoin="round" stroke-width="0.5"><title>2023-04-22 21.3km</title></polyline><polyline fill="none" points="164.27256841398776,194.5802021638956 148.33704298036173,206.86500284692738 139.21453204425052,200.1151269862894 138.1752586462535,196.4701791901607 165.54279145551845,153.135002846946 168.77608647057787,153.5400113017531 172.1248563081026,158.94011176005006 182.05569099867716,181.62028435862157 150.76201424235478,205.92002237355337 146.9513451163657,206.59500849689357 138.98358239978552,200.1151269862894 138.0597838247195,196.60517744231038 142.21687741577625,188.50525706610642 165.54279145551845,153.27000567945652 169.12251093657687,154.08002237521578 175.8200506111607,165.01519748393912 181.24736724421382,179.19028512993827 180.66999313468114,182.97028193227015 149.72274084435776,206.3250140902819 139.56095651024953,200.38512270594947 138.0597838247195,197.14517030795105 141.29307884024456,190.3952430820791 164.7344677010551,153.8100168670062 168.42966200457886,153.40500849753153 171.0855829101056,156.37506688933354 181.59379171021283,181.62028435862157 178.0140722291544,185.94027157174423 148.1060933363624,206.73000567907002 138.8681075782515,199.71013330097776 137.8288341802545,197.55016480700579 139.67643133178353,192.9602196298074 163.92614394798875,154.89003855723422 166.81301449704915,153.27000567945652 168.6606116485782,153.0 172.1248563081026,157.1850816156948 178.82239598268643,170.55025042954367 181.47831688821316,181.48528452252503 149.83821566635743,207.0 139.44548168824986,200.25012485333718 170.04630951210856,155.97005933360197 182.05569099867716,179.46028527233284 180.43904349114746,184.32027807936538 165.77374109905213,193.36521545622963 150.53106459788978,206.3250140902819 147.06681993883103,206.19001686573029 137.71335935825482,197.01017211307772 165.88921592151746,153.135002846946 168.6606116485782,153.8100168670062 182.28664064221084,181.48528452252503 166.92848931951448,193.63521260209382" stroke="#fffa00" stroke-linecap="round" stroke-linejoin="round" stroke-width="0.5"><title>2023-04-19 6.5km</title></polyline><polyline fill="none" points="32.218875220569316,266.3324900794396 30.55498690297827,256.5102728230122 30.261359552911017,253.32508947490714 33.06713201000821,250.7883463321341 34.12745299661765,248.74748196543078 34.27426667173859,247.24066074397706 35.77502868371084,243.46401552816678 36.90060019271914,241.57566326174128 37.031101237167604,240.69824032881297 46.65555327030597,235.6625131086039 49.46132572751958,234.46078469257918 49.80389096925501,233.81222952152893 48.8903836577083,230.43588991912839 48.43363000190584,226.35367738046625 48.53150578524219,223.87378351307416 49.086135224439204,223.39687693559972 48.776195243757684,222.57659467133635 48.82513313536765,218.66589535507956 48.466255263017956,217.80743780874764 48.66200682980707,217.55943820092943 46.98180588160176,213.0 48.09106475999579,216.20497278432595 48.188940543390345,217.86466843895323 48.74356998258736,218.37974329382996 49.03719733277103,223.4541057914903 48.44994263240369,223.91193598478276 48.417317371291574,224.61775525491976 48.0095016072155,224.67498372329283 48.48256789363222,224.90389741516265 48.38469211012125,226.39182932740368 49.03719733277103,231.3133627888019 49.91807938326383,233.6787031673448 48.82513313536765,234.8613617211522 47.38962164573604,235.10933753091376 45.888859633821994,235.91048781669815 45.660482805920765,236.3492114648252 42.80577245709719,237.37925409594027 41.680200948088896,238.25669317792926 37.22685280395672,240.5647190734162 33.57282355753705,249.96818866123795 30.734425839269534,252.40957726727356 30.228734291682485,253.2106507030694 30.081920616677962,253.7256246044708 31.843684717605356,263.31912883912446 32.153624698345084,266.2943465808057 32.25150048179785,266.80928313187906 33.034506748837885,267.0" stroke="#ffec00" stroke-linecap="round" stroke-linejoin="round" stroke-width="0.5"><title>2023-03-31 7.3km</title></polyline><polyline fill="none" points="86.12820359249599,213.0 91.09380559052806,223.09259527565155 94.3738362682052,232.70548291788145 96.01385160698555,235.12861832686758 97.69942292745691,235.84756610855402 98.4510966243688,236.72627727824147 100.13666794472374,240.53399027255364 101.29834547650535,241.99847995032906 101.36667944898363,242.93042349589814 103.37114264082629,247.29719877184834 104.03170437458903,248.04273820816888 104.53282017249148,249.87995097614476 107.1067331348313,253.23482668997895 107.97229678579606,253.47445896067075 109.27064226230141,254.6726168965688 110.29565184912644,254.99212471746432 112.11789111443795,256.3500284375623 113.27956864610314,255.68439027325076 113.78068444412202,255.89739467707113 111.52566335326992,259.3853161820589 108.45063459302764,266.2811410811846 107.42562500620261,266.9733756321948 108.56452454708051,266.4408876847883 109.86287002358586,263.0329381838965 113.16567869205028,256.50978133540775 113.21123467374127,255.68439027325076 113.59846051759087,255.76426694577094 113.53012654511258,256.0571478617785 110.4323197939666,261.67507046772516 108.5873025378678,266.84025375075 109.6806460970547,263.3258106538851 113.16567869205028,255.68439027325076 113.73512846254744,256.0571478617785 113.87179640738759,255.55126242937695 110.15898390428629,262.34069281134 108.51896856550593,267.0 108.13174272153992,266.9733756321948 113.16567869205028,256.5630322788493 113.21123467374127,255.65776471015124 113.48457056342158,256.2169009453064 110.61454372061417,261.40882103810145 108.40507861122023,266.6272585943225 113.30234663689043,255.73764139103878" stroke="#fffb00" stroke-linecap="round" stroke-linejoin="round" stroke-width="0.5"><title>2023-03-27 6.4km</title></polyline></svg>