<?xml version="1.0" encoding="utf-8" ?>
<svg baseProfile="full" height="300mm" version="1.1" viewBox="0,0,200,300" width="200mm" xmlns="http://www.w3.org/2000/svg" xmlns:ev="http://www.w3.org/2001/xml-events" xmlns:xlink="http://www.w3.org/1999/xlink"><defs /><rect fill="#222222" height="300" width="200" x="0" y="0" /><text fill="#FFFFFF" style="font-size:12px; font-family:Arial; font-weight:bold;" x="10" y="20">Over 6.0km Runs</text><text fill="#FFFFFF" style="font-size:4px; font-family:Arial" x="10" y="280">ATHLETE</text><text fill="#FFFFFF" style="font-size:9px; font-family:Arial" x="10" y="290">Xia</text><text fill="#FFFFFF" style="font-size:4px; font-family:Arial" x="120" y="280">STATISTICS</text><text fill="#FFFFFF" style="font-size:3px; font-family:Arial" x="120" y="285">Number: 9</text><text fill="#FFFFFF" style="font-size:3px; font-family:Arial" x="120" y="290">Weekly: 2.2</text><text fill="#FFFFFF" style="font-size:3px; font-family:Arial" x="141" y="285">Total: 76.2 km</text><text fill="#FFFFFF" style="font-size:3px; font-family:Arial" x="141" y="290">Avg: 8.5 km</text><text fill="#FFFFFF" style="font-size:3px; font-family:Arial" x="167" y="285">Min: 6.2 km</text><text fill="#FFFFFF" style="font-size:3px; font-family:Arial" x="167" y="290">Max: 21.3 km</text><polyline fill="none" points="27.125755743589252,60.21704840537859 31.805320435203612,57.112992684560595 26.01571946789045,61.056663159586606 18.158403869369067,68.96925235747767 15.220072551281191,73.90494804103218 13.652962515130639,77.39040416061471 13.0,79.42568367821514 15.220072551281191,74.10847971204203 18.20193470362574,69.04557831850252 26.712212817394175,60.52236320012889 32.78476420789957,56.52779736919911 33.481257557403296,55.764496994481306 33.742442563408986,54.84853335088701 35.24425634823274,53.85623547172872 36.136638452182524,51.947958826014656 38.770253929891624,51.515414017107105 40.90326481242664,52.02429018219118 42.79685610625893,51.36275095792371 42.81862152344547,50.675765993539244 44.5163240628317,49.81067102802626 45.2563482465921,50.31955079585896 46.21402660210151,50.344994756087544 49.60943168075755,49.68345091793162 55.856106408522464,47.36803317074373 57.74969770247117,47.317144618573366 63.86577992734965,45.99403848615475 63.931076178792864,45.20526021710248 66.25997581612319,44.721814194272156 66.82587666250765,43.958476392377634 66.67351874231827,40.57431632177031 67.0,43.37324910523603 66.7388149938779,44.136588762601605 66.08585247874726,44.77270329502062 63.996372430352494,45.10348218771105 63.64812575571705,46.044927318012924 57.46674727916252,47.26625605560548 55.46432889951393,47.3425888960337 53.94074969762005,47.876918101203046 53.57073760568164,48.38580195608665 46.75816203141585,50.243218899326166 45.23458282928914,50.344994756087544 44.45102781127207,49.81067102802626 43.03627569519449,50.37043871350761 42.81862152344547,51.260975531316944 40.7726723094238,51.99884639949596 38.770253929891624,51.46452634151501 37.05078597331885,51.48997018065711 34.7001209189184,50.57399027654901 33.045949214021675,50.49765846061928 35.24425634823274,51.617189336247975 35.81015719450079,51.54085785095231 36.006045949063264,51.133756187555264 37.464328899630345,51.59174551049364 36.04957678343635,51.89707124175038 35.287787182605825,54.365106689801905 34.330108826979995,55.56094981919159 26.755743651650846,60.42059164492821 20.596130592515692,66.27238620830758" stroke="#ffe600" stroke-linecap="round" stroke-linejoin="round" stroke-width="0.5"><title>2023-05-10 7.7km</title></polyline><polyline fill="none" points="109.36290322523564,39.379490782972425 124.60483870981261,51.21738208946772 127.0,56.181624448508956 112.62903225747868,83.80280430149287 108.38306451588869,84.9483695041854 74.63306451635435,67.25562979653478 73.0,62.67329510964919 80.72983870934695,48.79889762750827 96.95161290280521,35.43350114731584 100.97983870981261,35.30621094349772 117.85483870888129,45.99854112858884 126.45564516074955,54.7814555990044 125.80241935420781,60.25483366032131 112.95564516074955,83.03909356112126 109.03629032196477,84.9483695041854 73.32661290280521,65.72818683856167 76.26612903177738,55.54518426407594 82.90725806402043,46.50769733998459 96.40725806402043,35.81537167716306 101.74193548317999,35.05163049593102 123.29838709626347,50.071784792118706 126.56451612897217,54.52687926986255 125.91129032243043,60.25483366032131 112.7379032257013,83.29366386181209 108.92741935420781,84.9483695041854 73.32661290280521,65.60089983802754 75.39516128972173,57.32721593196038 82.90725806402043,46.634986359393224 96.51612903177738,35.6880815140903 101.8508064514026,35.17892072664108 122.86290322523564,49.689918783842586 126.56451612897217,55.29060809663497 125.4758064514026,61.01855885318946 112.7379032257013,83.16637871810235 108.81854838691652,84.69379955355544 75.50403225747868,67.51020343462005 73.0,62.800582419731654 77.35483870888129,53.63586169318296 86.60887096682563,42.94359933701344 97.27822580654174,35.17892072664108 104.79032257990912,36.96098254038952 107.83870967756957,38.61575186275877 123.7338709672913,50.58093928114977 126.45564516074955,56.05433643842116 124.82258064486086,62.16414573485963 112.19354838645086,84.05737444083206 108.38306451588869,84.69379955355544 90.85483870888129,74.12909912678879 77.13709677383304,68.52849744807463 73.0,62.67329510964919 79.53225806448609,50.58093928114977 96.51612903177738,35.560791337280534 101.41532257990912,35.17892072664108" stroke="#fff900" stroke-linecap="round" stroke-linejoin="round" stroke-width="0.5"><title>2023-05-07 6.6km</title></polyline><polyline fill="none" points="162.74395558563992,75.90612879721448 149.36717210523784,86.86633948062081 140.90664238249883,80.85160147584975 138.0483553139493,75.77246710506734 165.14491672301665,33.53466476825997 169.1465186192654,34.33666149666533 171.54747975664213,38.07930616999511 182.40897061722353,61.470584414782934 174.1771038598381,69.22302688332275 148.90984617406502,87.0 137.93402383103967,77.64372950966936 141.8212942443788,68.82203964504879 166.28823155071586,33.133666213136166 168.80352417053655,34.06932931044139 172.91945754969493,41.019947785069235 182.2946391343139,61.470584414782934 178.5217002038844,66.01512541878037 166.63122599897906,72.83190630318131 149.71016655350104,86.46535783645231 138.50568124558777,78.04471395048313 137.81969234906137,76.17345213925 141.363968313206,69.89133866364136 164.91625375766307,33.935663195909 169.1465186192654,34.33666149666533 182.06597616896033,59.19830778858159 181.72298172069713,62.27256342594046 149.82449803641066,86.33169726049528 138.50568124558777,78.31203684012871 138.0483553139493,76.03979047527537 142.5072831409052,68.28738979704212 166.40256303362548,33.133666213136166 168.80352417053655,33.801997067639604 173.60544644622132,41.55460916250013 182.1803076514043,59.33197123289574 181.37998727243394,62.53988965007011 149.48150358814746,86.59901839855593 146.73754800250754,86.06437606608961 137.59102938277647,76.70809865335468 166.28823155071586,33.133666213136166 168.68919268855825,33.26733241241891 172.57646310143173,40.084289831342176 181.72298172069713,58.66365387139376 181.60865023778751,62.138900293037295 150.16749248467386,86.33169726049528 147.08054245030507,85.93071544740815 138.0483553139493,76.03979047527537 163.88727041333914,35.00499171495903 167.77454082621261,33.0 174.9774242383428,44.09424761682749 181.4943187548779,57.995336156804115 181.4943187548779,62.27256342594046 168.00320379203185,72.56458225473762" stroke="#fff100" stroke-linecap="round" stroke-linejoin="round" stroke-width="0.5"><title>2023-05-06 7.1km</title></polyline><polyline fill="none" points="51.77589085511863,145.88752248627134 45.04681036435068,127.6490405399818 37.705995285883546,124.07285607699305 29.75344561599195,126.93380394950509 27.91824184730649,155.18553425581194 33.42385315708816,172.7086408054456 41.07053552940488,175.92716071149334 52.08175814896822,171.99341374402866 53.916961919516325,147.31798749859445 44.74094307050109,124.07285607699305 36.48252610489726,123.35761872935109 27.612374551594257,129.79474940290675 29.447578320279717,163.7682916643098 36.17665881291032,173.78148111398332 51.77589085511863,175.92716071149334 52.08175814896822,135.87425045622513 45.35267766006291,125.14571181265637 34.34145504236221,123.35761872935109 28.224109143018723,127.6490405399818 25.777170781046152,135.51663304958493 32.50625126995146,172.35102729406208 50.85828896984458,175.2119343301747 54.83456380479038,161.62260435405187 47.799616020172834,128.36427697888575 38.6235971711576,123.71523742191494 28.224109143018723,126.93380394950509 25.471303487196565,138.0199541009497 32.50625126995146,171.27818653080612 49.02308520115912,175.56954754027538 54.83456380479038,163.41067720786668 49.94068708643317,132.29807468946092 39.84706635028124,123.0 29.75344561599195,126.2185672079213 25.471303487196565,135.51663304958493 30.976914796978235,168.41727616661228 47.187881430611014,176.28477384569123 52.38762544468045,173.0662542800419 54.528696509078145,161.2649896699004 49.634819788858294,130.50998538755812 43.211606595665216,124.43047469295561 34.6473223362118,125.50333031523041 25.471303487196565,133.01331014442258 30.36518020555377,168.05966220214032 40.15293364599347,175.2119343301747 50.55242167413235,174.85432108328678 55.14043110050261,158.7616858233232 49.634819788858294,129.43713135342114 41.988137416541576,123.71523742191494 31.894516682252288,125.14571181265637 24.859568897634745,135.51663304958493 30.976914796978235,169.13250398542732 48.10548331588507,176.64238694123924 54.22282921522856,165.91397761390544 49.32895249500871,128.36427697888575 36.78839340060949,124.07285607699305 29.14171102643013,126.57618559803814 24.859568897634745,135.1590156047605 30.976914796978235,169.49011783697642 48.71721790544689,176.28477384569123 54.83456380479038,162.3378336096648 51.77589085511863,132.29807468946092 45.96441224962473,125.86094878101721 33.42385315708816,124.43047469295561 25.165436191484332,137.66233692062087 30.36518020555377,168.41727616661228 46.576146841049194,175.92716071149334 54.83456380479038,163.7682916643098 49.634819788858294,128.36427697888575 37.094260696321726,123.71523742191494 26.388905372470617,131.9404569042381 30.059312909841537,168.41727616661228 45.6585449539125,177.0 54.528696509078145,167.7020481978543 49.634819788858294,129.07951326668262 39.84706635028124,123.35761872935109 30.059312909841537,125.86094878101721 25.165436191484332,135.1590156047605 30.059312909841537,169.13250398542732 44.129208479076624,177.0 54.528696509078145,168.41727616661228 51.77589085511863,135.87425045622513 38.01186257973313,124.07285607699305 25.165436191484332,134.80139812314883 29.75344561599195,166.98682007868774 41.07053552940488,176.28477384569123 54.22282921522856,168.05966220214032 51.16415626369417,131.9404569042381 35.870791517198086,123.35761872935109 25.165436191484332,136.58948515541852 30.059312909841537,166.98682007868774 42.59987200424075,176.64238694123924 55.14043110050261,166.98682007868774 50.24655438028276,128.0066587778274 39.541199054569006,123.0 30.976914796978235,125.50333031523041 26.083038076758385,137.66233692062087 30.36518020555377,169.13250398542732 34.95318963192403,174.85432108328678 46.27027954533696,175.92716071149334 54.83456380479038,164.48352046567015 52.08175814896822,132.29807468946092 41.988137416541576,124.43047469295561 31.588649386540055,125.50333031523041 26.694772666320205,138.73518834658898 31.588649386540055,171.63580015674233 46.88201413489878,176.28477384569123 54.83456380479038,169.49011783697642 54.22282921522856,152.68222590908408" stroke="#ffff00" stroke-linecap="round" stroke-linejoin="round" stroke-width="0.5"><title>2023-05-03 6.2km</title></polyline><polyline fill="none" points="111.77288842201233,142.05892327986658 102.41495147161186,124.05883192666806 87.01963583938777,126.52943844744004 89.73645624518394,167.4706517108716 98.79252426326275,175.58824641420506 113.28223309107125,171.00004313816316 109.9616748187691,134.64713271264918 101.81121360324323,124.41177582694218 93.96262132190168,123.0 87.32150477357209,129.00004313979298 89.43458731286228,165.70595459942706 98.79252426326275,175.9411848662421 108.15046121552587,175.9411848662421 113.5841020271182,169.5882870152127 109.9616748187691,136.05890361359343 96.37757279351354,123.0 91.54766985028982,123.70588798890822 85.51029117032886,136.05890361359343 90.34019411355257,168.8824087306857 106.64111654646695,176.2941232821904 113.5841020271182,165.70595459942706 107.54672334901989,131.82358911982737 93.35888345167041,124.41177582694218 87.32150477357209,127.58826925326139 86.11402903869748,135.7059609447606 89.73645624518394,169.94122610241175 103.01868933811784,176.647061659256 113.5841020271182,170.64710416388698 109.65980588458478,136.41184624494053 101.81121360324323,125.82355105644092 93.35888345167041,125.11766351619735 86.4158979728818,135.35301823727787 91.54766985028982,172.05885983840562 104.22616507485509,177.0 112.37662629038095,172.05885983840562 88.52898051030934,151.23540308442898 91.84953878261149,171.00004313816316 107.24485441297293,176.647061659256 114.18783989362419,165.35301506449468 109.65980588458478,131.11770284897648 93.66075238771737,125.47060730564408 87.6233737077564,133.23536121472716 92.75514558516443,173.47061491641216 106.03737867996097,177.0 112.37662629038095,172.76473745238036 114.4897088278085,162.52949744462967 109.0560680180788,132.5294752428308 104.82990294322371,128.294156271033 86.7177669070661,132.17653220007196 90.03832517936826,166.05889409594238 95.77383492514491,175.23530792538077 103.62242720648646,176.2941232821904 112.98036415874958,168.8824087306857 110.56541268713772,132.5294752428308 98.18878639675677,124.05883192666806 87.6233737077564,131.4706460032612 89.73645624518394,164.6471358833369 98.79252426326275,175.9411848662421 110.26354375295341,173.82355359313078 113.28223309107125,168.8824087306857 110.56541268713772,135.00007549417205 105.73550974391401,128.6470997245051 91.84953878261149,126.88238208624534 87.01963583938777,131.4706460032612 87.01963583938777,151.94128510146402 94.86822812259197,173.82355359313078 104.52803400717676,177.0 112.37662629038095,172.4117986643687 112.07475735805929,142.7648072373122 104.82990294322371,128.6470997245051 87.6233737077564,132.5294752428308 92.45327665098011,170.64710416388698 105.13177187554538,176.2941232821904 112.67849522456527,169.94122610241175 113.88597095943987,149.82363860215992 107.84859228134155,130.4118164286483 97.88691746257246,125.11766351619735 90.9439319819212,127.58826925326139 90.34019411355257,163.94125655386597 96.6794417258352,174.52943083294667 112.07475735805929,171.3529820763506 114.18783989362419,161.82361766742542 108.45233014971018,130.05887316260487 98.49065533094108,124.76471968973055 87.6233737077564,134.64713271264918 91.84953878261149,168.5294695312623 102.71682040579617,177.0 110.56541268713772,173.47061491641216 113.28223309107125,165.35301506449468 105.73550974391401,127.9412127812393 91.84953878261149,126.17649477068335 87.01963583938777,137.11773139727302 92.45327665098011,172.05885983840562 108.75419908389449,174.52943083294667 113.5841020271182,160.0589175685309 110.86728162132204,138.52950125234202 106.03737867996097,129.00004313979298 96.98131066001952,125.47060730564408 87.6233737077564,137.82361639942974 88.83084944449365,163.23537707445212 94.86822812259197,173.82355359313078 101.50934466905892,176.2941232821904 111.47101948782802,169.5882870152127 112.07475735805929,143.82363289268687 102.41495147161186,125.82355105644092 87.6233737077564,131.11770284897648 88.52898051030934,165.70595459942706 95.17009705677629,175.23530792538077 103.62242720648646,176.2941232821904 113.28223309107125,169.23534789076075 110.86728162132204,136.76478883973323 102.71682040579617,125.82355105644092 88.22711157612503,128.294156271033 85.51029117032886,140.6471549165435 91.24580091610551,171.3529820763506 103.62242720648646,175.58824641420506 114.18783989362419,165.0000754923094 108.45233014971018,131.4706460032612 97.88691746257246,124.41177582694218 89.73645624518394,126.88238208624534 85.81216010451317,135.00007549417205 89.43458731286228,170.29416515142657 100.30186893232167,175.58824641420506 112.37662629038095,171.3529820763506 111.1691505536437,150.52952091791667" stroke="#fff100" stroke-linecap="round" stroke-linejoin="round" stroke-width="0.5"><title>2023-05-02 7.0km</title></polyline><polyline fill="none" points="186.9290407358494,136.6664598787538 185.97503285150742,136.79557471050066 185.81734559789766,137.13680584427493 186.27463863338926,140.56748780706403 185.39947437579394,140.96403641679353 185.34428383703926,141.12081095055328 185.5413929040369,141.56346693413798 187.0,143.34329015842377 186.9290407358494,143.60149983302836 186.0302233902621,144.23779897798522 185.81734559789766,144.23779897798522 183.59395532193594,141.88623550377815 183.2864651773998,141.9046793859161 182.22207621549023,142.68854076610296 180.9369250985328,142.02456452458864 180.41655716160312,141.60035483119282 182.7897503285203,138.87983050550247 183.19973718791152,138.60316225375573 182.60052562414785,137.55181488054222 182.10381077526836,136.97080167594686 181.65440210246015,136.76790726268518 179.84099868591875,136.74023980604397 178.87910643889336,135.97477002008236 178.30354796320898,135.74420551286312 177.8068331143295,135.75342810485745 177.56241787120234,135.92865716746746 177.3022339027666,136.25144662286039 177.23127463861601,136.62034739243245 177.47568988171406,139.26716458125156 177.3416557161545,139.5899416616594 174.19579500655527,140.26315857960435 173.84099868594785,140.429156471866 173.5886990801373,140.80726160086488 173.55716162946192,141.22225314549723 174.68462549278047,144.44989765994978 174.87385019709473,145.43661082470499 174.68462549278047,145.71325736921426 173.72273324569687,146.36798402412387 172.76872536135488,146.82905617998767 172.2562417871086,147.29012589526974 171.59395532193594,147.64975857899844 171.10512483576895,148.16615163072856 171.2628120893787,150.3884510796779 171.16819973717793,151.43042258525384 170.61629434951465,153.19160272466252 170.00131406044238,154.50093870780984 169.76478317999863,154.5562623301521 169.21287779239356,153.56965245864558 167.32851511167246,149.4202362974611 167.1077529566246,149.24503437750536 166.77660972403828,149.35568826266535 165.7752956635959,150.54520865129598 164.9001314060588,151.28288755427639 162.70827858083067,152.48160244926112 161.24178712218418,153.0532914365249 161.05256241786992,153.25614791733096 160.60315374506172,154.69457123233587 160.42969776605605,157.00890762086783 160.2562417871377,157.1748736051668 159.85413929040078,157.22097521140677 159.7043363994744,157.42382198896667 159.86990801576758,158.6316725686629 159.7516425755748,160.52178682275553 157.70959264127305,160.7246259165113 155.02890932981973,162.098387351798 154.2168199737207,162.3288821153037 153.21550591327832,162.39342053984 153.04204993427265,162.29200299413787 153.08935611037305,159.9685868944871 152.65571616293164,158.00469878506556 152.50591327200527,155.1924814622107 152.31668856769102,155.0726144447035 152.02496714852168,155.23858411735273 151.63074901443906,155.72727076198498 151.70170827858965,156.86138203607698 151.5203679369297,157.47914375541586 151.76478317999863,158.59479188274418 151.60709592638887,159.3785031000516 150.81077529568574,160.30972726533219 150.25098554533906,160.50334688173461 149.05256241786992,160.44802703522146 148.93429697764805,160.31894725683378 148.7135348226002,159.50758427154506 148.34296977662598,159.3785031000516 148.00394218132715,158.80685561363498 148.01182654401055,155.52442003469332 147.47568988174316,155.28468674807664 146.74244415241992,155.36767142195458 144.9842312746332,156.01310507611197 144.77135348223965,156.26205677924736 145.20499342968105,158.29052562826837 145.13403416558867,159.85794648741285 145.26806833111914,158.09690109499206 144.9448094612453,156.4280241861925 145.0,156.13297079975746 146.844940867275,155.4045534738325 147.87779237845098,155.45987652241456 147.90932982918457,159.42460354041395 148.13797634694492,161.1671823004799 149.33639947435586,164.18203785996593 148.98948751643184,164.2557944871296 148.7056504599459,163.71183789430506 148.51642575560254,163.60120223957347 146.99474375820137,163.23241570949176 145.77266754271113,164.13593993627728 144.38501971089863,164.1635986933834 144.0617608409957,163.71183789430506 143.87253613668145,163.74871641466598 143.6517739816045,163.48134678847418 142.13009198423242,163.33383216086077 140.49014454666758,162.66079350378277 140.3561103810789,162.7253316825154 139.78055190536543,162.55937626917876 137.5571616294328,162.64235401534097 135.2549277266953,162.00618927568576 136.201051248383,159.53524449768884 136.42181340343086,159.42460354041395 140.11169513800996,160.47568696285452 141.47568988174316,160.70618601843307 142.81603153742617,160.74306581075507 145.0394218133879,160.42036709879176 145.18922470431426,161.1948419998589 145.29172141916933,163.37993050881778 145.4967148488795,162.44873915141216 145.25229960578145,161.35158013045293 145.30749014453613,160.37426718525967 145.62286465178477,160.17142727596365 147.7516425755748,159.63666525180452 143.51773981601582,160.512566852718 142.1931668856705,160.6139864693614 140.8607095926418,160.50334688173461 133.0,158.4011680255644 133.07884362680488,158.10612132061215 133.66228646520176,157.53446548677312" stroke="red" stroke-linecap="round" stroke-linejoin="round" stroke-width="0.5"><title>2023-04-22 21.3km</title></polyline><polyline fill="none" points="44.272568413987756,254.5802021638956 28.33704298036173,266.8650028469274 19.214532044250518,260.1151269862894 18.175258646253496,256.4701791901607 45.542791455518454,213.135002846946 48.776086470577866,213.5400113017531 52.12485630810261,218.94011176005006 62.055690998677164,241.62028435862157 30.76201424235478,265.92002237355337 26.9513451163657,266.59500849689357 18.98358239978552,260.1151269862894 18.05978382471949,256.6051774423104 22.216877415776253,248.50525706610642 45.542791455518454,213.27000567945652 49.12251093657687,214.08002237521578 55.820050611160696,225.01519748393912 61.24736724421382,239.19028512993827 60.669993134681135,242.97028193227015 29.72274084435776,266.3250140902819 19.560956510249525,260.38512270594947 18.05978382471949,257.14517030795105 21.29307884024456,250.3952430820791 44.73446770105511,213.8100168670062 48.42966200457886,213.40500849753153 51.085582910105586,216.37506688933354 61.59379171021283,241.62028435862157 58.01407222915441,245.94027157174423 28.10609333636239,266.73000567907 18.86810757825151,259.71013330097776 17.82883418025449,257.5501648070058 19.676431331783533,252.9602196298074 43.92614394798875,214.89003855723422 46.81301449704915,213.27000567945652 48.6606116485782,213.0 52.12485630810261,217.1850816156948 58.82239598268643,230.55025042954367 61.47831688821316,241.48528452252503 29.838215666357428,267.0 19.445481688249856,260.2501248533372 50.046309512108564,215.97005933360197 62.055690998677164,239.46028527233284 60.43904349114746,244.32027807936538 45.77374109905213,253.36521545622963 30.53106459788978,266.3250140902819 27.06681993883103,266.1900168657303 17.71335935825482,257.0101721130777 45.88921592151746,213.135002846946 48.6606116485782,213.8100168670062 62.28664064221084,241.48528452252503 46.92848931951448,253.63521260209382" stroke="#fffa00" stroke-linecap="round" stroke-linejoin="round" stroke-width="0.5"><title>2023-04-19 6.5km</title></polyline><polyline fill="none" points="92.21887522056932,266.3324900794396 90.55498690297827,256.5102728230122 90.26135955291102,253.32508947490714 93.06713201000821,250.7883463321341 94.12745299661765,248.74748196543078 94.27426667173859,247.24066074397706 95.77502868371084,243.46401552816678 96.90060019271914,241.57566326174128 97.0311012371676,240.69824032881297 106.65555327030597,235.6625131086039 109.46132572751958,234.46078469257918 109.80389096925501,233.81222952152893 108.8903836577083,230.43588991912839 108.43363000190584,226.35367738046625 108.53150578524219,223.87378351307416 109.0861352244392,223.39687693559972 108.77619524375768,222.57659467133635 108.82513313536765,218.66589535507956 108.46625526301796,217.80743780874764 108.66200682980707,217.55943820092943 106.98180588160176,213.0 108.09106475999579,216.20497278432595 108.18894054339034,217.86466843895323 108.74356998258736,218.37974329382996 109.03719733277103,223.4541057914903 108.44994263240369,223.91193598478276 108.41731737129157,224.61775525491976 108.0095016072155,224.67498372329283 108.48256789363222,224.90389741516265 108.38469211012125,226.39182932740368 109.03719733277103,231.3133627888019 109.91807938326383,233.6787031673448 108.82513313536765,234.8613617211522 107.38962164573604,235.10933753091376 105.888859633822,235.91048781669815 105.66048280592076,236.3492114648252 102.80577245709719,237.37925409594027 101.6802009480889,238.25669317792926 97.22685280395672,240.5647190734162 93.57282355753705,249.96818866123795 90.73442583926953,252.40957726727356 90.22873429168249,253.2106507030694 90.08192061667796,253.7256246044708 91.84368471760536,263.31912883912446 92.15362469834508,266.2943465808057 92.25150048179785,266.80928313187906 93.03450674883788,267.0" stroke="#ffec00" stroke-linecap="round" stroke-linejoin="round" stroke-width="0.5"><title>2023-03-31 7.3km</title></polyline><polyline fill="none" points="146.128203592496,213.0 151.09380559052806,223.09259527565155 154.3738362682052,232.70548291788145 156.01385160698555,235.12861832686758 157.6994229274569,235.84756610855402 158.4510966243688,236.72627727824147 160.13666794472374,240.53399027255364 161.29834547650535,241.99847995032906 161.36667944898363,242.93042349589814 163.3711426408263,247.29719877184834 164.03170437458903,248.04273820816888 164.53282017249148,249.87995097614476 167.1067331348313,253.23482668997895 167.97229678579606,253.47445896067075 169.2706422623014,254.6726168965688 170.29565184912644,254.99212471746432 172.11789111443795,256.3500284375623 173.27956864610314,255.68439027325076 173.78068444412202,255.89739467707113 171.52566335326992,259.3853161820589 168.45063459302764,266.2811410811846 167.4256250062026,266.9733756321948 168.5645245470805,266.4408876847883 169.86287002358586,263.0329381838965 173.16567869205028,256.50978133540775 173.21123467374127,255.68439027325076 173.59846051759087,255.76426694577094 173.53012654511258,256.0571478617785 170.4323197939666,261.67507046772516 168.5873025378678,266.84025375075 169.6806460970547,263.3258106538851 173.16567869205028,255.68439027325076 173.73512846254744,256.0571478617785 173.8717964073876,255.55126242937695 170.1589839042863,262.34069281134 168.51896856550593,267.0 168.13174272153992,266.9733756321948 173.16567869205028,256.5630322788493 173.21123467374127,255.65776471015124 173.48457056342158,256.2169009453064 170.61454372061417,261.40882103810145 168.40507861122023,266.6272585943225 173.30234663689043,255.73764139103878" stroke="#fffb00" stroke-linecap="round" stroke-linejoin="round" stroke-width="0.5"><title>2023-03-27 6.4km</title></polyline></svg>